<svg version="1.1" xmlns="http://www.w3.org/2000/svg" xmlns:xlink="http://www.w3.org/1999/xlink" width="214.81587" height="63.07255" viewBox="0,0,214.81587,63.07255"><g transform="translate(-132.59207,-148.46372)"><g data-paper-data="{&quot;isPaintingLayer&quot;:true}" fill-rule="nonzero" stroke="none" stroke-width="0.5" stroke-linecap="butt" stroke-linejoin="miter" stroke-miterlimit="10" stroke-dasharray="" stroke-dashoffset="0" style="mix-blend-mode: normal"><path d="" fill="#f0ff00"/><path d="" fill="#f0ff00"/><path d="" fill="#f0ff00"/><path d="" fill="#f0ff00"/><path d="" fill="#f0ff00"/><path d="M214.45253,206.22516c-3.71195,3.34984 -7.06179,-0.36211 -7.06179,-0.36211c-1.85035,-2.97252 -5.59519,-1.43078 -8.44356,-1.36079c-1.41935,0.03488 -7.17363,-0.38733 -8.88225,-0.42993c-9.35347,-0.23323 -18.74597,0.00172 -28.1036,0.00172c-4.60437,0 -9.67251,0.52862 -14.26268,-0.02201c-1.38989,-0.16673 -2.71818,-0.74724 -4.11508,-0.83809c-3.44715,-0.22421 -6.39446,4.51246 -9.95984,-1.49682c-2.04668,-3.44958 -0.38288,-8.01295 -0.57433,-12.01942c0.17235,-2.5717 -0.93386,-5.53211 0.42774,-7.72058c3.28368,-5.27778 5.64297,-4.79954 10.59499,-4.88376c5.06188,-0.08608 10.12752,0.15402 15.18783,0.00132c9.26206,-0.27948 18.49099,-1.24321 27.74795,-1.503c3.97407,-0.11153 8.04396,0.69646 11.92582,-0.16197c1.98473,-0.4389 3.83773,-1.43165 5.84928,-1.72395c2.90679,-0.42239 5.89095,0.09981 8.80872,-0.23849c10.52675,-1.22052 20.58987,-2.28916 31.02006,0.00046c1.97506,-0.01952 3.94942,-0.10966 5.92115,-0.22581l0.72855,0.16736l2.99137,-1.70935c0.84352,0.48201 1.89945,0.75305 2.7992,1.17921c2.29102,0.30943 4.7089,0.97438 5.70318,1.30557c0.79721,-0.53746 1.75773,-0.8512 2.79152,-0.8512c1.65316,0 3.11894,0.8023 4.0292,2.03878c0.19715,-0.17065 0.35034,-0.40558 0.4477,-0.71963c1.88449,-6.0781 -2.15796,-22.73441 4.44508,-25.86035c3.60513,-1.7067 9.54411,3.72025 12.07473,5.15581c9.71269,5.50978 21.73053,10.12569 31.90008,14.23958c4.80826,1.94509 10.48172,4.19214 15.42133,5.91722c6.66164,2.32647 12.40477,1.5949 13.52949,9.60205c0.26966,1.91975 -3.55986,3.91829 -4.89349,4.6484c-6.00266,3.28625 -11.67808,6.19617 -17.98044,8.83325c-1.81509,0.75949 -3.28884,2.35448 -5.15479,3.02809c-5.77943,2.08637 -11.64515,4.13148 -17.15321,6.85637c-3.76298,1.86158 -5.10338,5.17542 -10.07002,4.32676c-2.23892,-0.38257 -3.41466,-4.12699 -6.18242,-4.78883c-4.31447,-1.03169 -8.69755,-2.30758 -12.82453,-3.91757c-4.13623,-1.6136 -10.17844,0.49327 -14.34642,-0.87031c-4.28011,1.93528 -9.91271,1.01002 -14.80293,0.91804c-8.7812,-0.16517 -17.50511,0.03108 -26.28752,-0.06257c-0.40976,-0.00437 -0.91707,-0.00227 -1.49692,-0.00105c0.00291,1.10453 -0.42125,2.34923 -1.74915,3.5476z" fill="#f0ff00"/></g></g></svg>