<svg version="1.1" xmlns="http://www.w3.org/2000/svg" xmlns:xlink="http://www.w3.org/1999/xlink" width="48.35372" height="74.59125" viewBox="0,0,48.35372,74.59125"><g transform="translate(-182.77484,-145.14042)"><g data-paper-data="{&quot;isPaintingLayer&quot;:true}" fill-rule="nonzero" stroke="none" stroke-width="0.5" stroke-linecap="butt" stroke-linejoin="miter" stroke-miterlimit="10" stroke-dasharray="" stroke-dashoffset="0" style="mix-blend-mode: normal"><path d="M227.01099,152.49119l1.39052,1.32069l0.30775,0.4842l0.39464,0.41644l0.38584,0.68407l0.01064,0.0047l0.01445,0.03979l0.18687,0.3313l0.20836,0.75703l0.26801,0.73802l0.03924,0.37834l0.01123,0.04081l-0.00596,0.00999l0.15475,1.49186l-0.03774,0.26471l0.05615,0.26142l-0.13284,3.97446l-0.03347,0.1171l0.01817,0.12042l-0.39853,4.17319l-0.02434,0.06877l0.00822,0.07249l-0.03675,0.27651l0.3703,1.66183l0.32535,1.36275l-0.00211,0.19905l0.07345,0.18502l0.26569,1.98723l-0.01873,0.16641l0.04832,0.16034l0.06643,1.39106l-0.00511,0.02557l0.00719,0.02506l0.06538,1.89108l0.06493,1.29493l-0.01256,0.06365l0.01682,0.06266l0.06643,3.84198l-0.00773,0.03337l0.00831,0.03323v1.39106l-0.01374,0.05498l0.01216,0.05535l-0.06643,2.31844l-0.00905,0.03225l0.00664,0.03283l-0.06643,1.4573l-0.00664,0.0222l0.00432,0.02276l-0.13284,2.31844l-0.01539,0.04937l0.00832,0.05104l-0.13284,1.58979l-0.06395,0.18772l0.012,0.19796l-0.53137,2.84836l-0.1341,0.29285l-0.03365,0.32033l-0.53138,1.45731l-0.01113,0.01646l-0.00227,0.01973l-0.99632,2.64964l-0.02913,0.04215l-0.00718,0.05073l-1.07478,2.6481l-0.45821,1.42802l-0.24119,0.90202l-0.27725,0.50004l-0.17597,0.544l-1.85982,2.98085l-0.19983,0.19299l-0.12209,0.24954l-1.07155,1.27218l-0.31721,0.67222l-0.06273,0.07664l-0.02413,0.09606l-0.35592,0.66553l0.00315,0.02364l-0.04772,0.05971l-0.13088,0.24473l-0.54973,0.60683l-0.51121,0.63962l-0.22068,0.1683l-0.05132,0.05665l-0.02384,0.00067l-0.80534,0.61418l-1.92026,1.52075l-0.41026,0.49097l-0.54009,0.39358l-0.4789,0.46611l-0.79708,0.46369l-0.36046,0.1044l-0.31413,0.2053l-1.52769,0.52992l-0.26683,0.02379l-0.24216,0.11455l-0.66422,0.13248l-0.22301,-0.01074l-0.21138,0.07191l-0.79707,0.06625l-0.1609,-0.02631l-0.15817,0.03954h-0.58311l-1.57988,0.12119l-0.30665,-0.05214l-0.30697,0.05019l-0.79706,-0.06623l-0.12929,-0.04398l-0.13598,0.01264l-0.86348,-0.13249l-0.33702,-0.14139l-0.36382,-0.03472l-1.68129,-0.59496l-0.0174,0.00523l-0.0538,-0.03042l-0.30659,-0.10849l-0.66913,-0.44328l-0.69867,-0.3951l-0.23581,-0.22397l-0.05152,-0.03413l-0.00323,-0.01787l-2.49916,-2.37366l-0.01768,-0.02782l-0.02841,-0.0167l-4.31741,-4.23943l-0.11003,-0.17965l-0.16913,-0.1256l-0.42266,-0.51516l-0.59324,-0.54232l-0.24119,-0.36397l-0.32803,-0.28817l-1.32844,-1.92099l-0.00102,-0.0027l-0.00217,-0.00191l-0.73065,-1.05985l-0.12024,-0.32083l-0.21347,-0.26799l-0.32152,-0.70544l-0.43761,-0.92741l-0.52566,-0.87372l-1.0445,-1.20614l-0.09013,-0.178l-0.15081,-0.13062l-0.46496,-0.66241l-0.20638,-0.53679l-0.30484,-0.48766l-0.73065,-2.25219l-0.0071,-0.10318l-0.05015,-0.09045l-0.26569,-0.99362l-0.00144,-0.08811l-0.03925,-0.0789l-0.59779,-2.71589l0.00647,-0.22853l-0.0773,-0.21515l-0.09835,-0.98072l-0.16633,-0.58055l-0.32787,-1.11178l-0.00814,-0.1947l-0.08167,-0.17693l-0.39316,-2.07243l-0.71814,-1.76295l-0.02432,-0.17032l-0.08908,-0.14719l-0.26569,-0.86113l-0.03131,-0.57606l-0.13992,-0.55968v-1.61495l-0.06554,-3.07224l0.0428,-0.18815l-0.03227,-0.19024l0.06374,-0.82645l0.06437,-1.09136l0.00747,-0.02382l-0.00431,-0.02459l0.19928,-2.78213l0.06641,-0.20277l-0.01378,-0.21292l0.26569,-1.45731l0.09048,-0.19975l0.01035,-0.21904l0.73799,-2.45326l0.55989,-2.97802l0.11167,-0.24296l0.02074,-0.26659l0.09886,-0.29574l0.13812,-0.50506l0.55524,-2.70713l0.18562,-1.17242l0.01806,-0.04249l-0.00298,-0.04607l0.26569,-1.4573l0.13614,-0.30055l0.03447,-0.32814l0.67987,-1.86458l-0.00769,-0.02833l0.0457,-0.07594l0.07916,-0.21711l0.46807,-0.69213l0.43086,-0.71588l0.12216,-0.12183l1.1671,-2.804l0.3244,-0.43625l0.22716,-0.4939l0.39114,-0.4876l0.13962,-0.22277l0.53291,-1.00387l0.288,-0.31988l0.193,-0.38473l0.39851,-0.46368l0.48215,-0.34121l0.41184,-0.42341l1.92625,-1.19234l0.36366,-0.11621l0.31448,-0.21647l0.34232,-0.12802l0.21789,-0.10865l0.71489,-0.15806l0.69368,-0.23424l2.45762,-0.19872l0.05513,0.00914l0.05343,-0.01638l1.26202,-0.06624l0.41356,0.08062l0.41998,-0.03379l0.4834,0.08035h3.26883l0.0391,0.00977l0.03929,-0.00898l3.25466,0.06624l0.30951,0.0841l0.32015,-0.01927l1.02979,0.19256l3.88582,0.65682l0.46735,0.20447l0.50129,0.09453l2.55154,1.17443l1.36641,0.59247l1.79828,0.63636l1.32264,0.35974l0.51687,0.28948l0.56082,0.19089l1.12917,0.72865l0.25225,0.26928l0.32061,0.18263zM219.60254,158.16845c0.07001,-0.55144 0.2566,-1.0665 0.53428,-1.5197l-0.09341,-0.06028l-0.88522,-0.24077l-0.12802,-0.0717l-0.14607,-0.01394l-2.05908,-0.72865l-0.11328,-0.07505l-0.13406,-0.02221l-1.52771,-0.66241l-0.03495,-0.0268l-0.04328,-0.00816l-2.12598,-0.97855l-3.41472,-0.57719l-0.03159,-0.01382l-0.03442,0.00207l-0.75059,-0.14035l-2.89797,-0.05898h-3.54759l-0.31153,-0.07788l-0.32009,0.02575l-0.38284,-0.06363l-0.78837,0.04138l-1.7318,0.14003l-0.03124,0.0215l-0.17592,0.06579l-0.94422,0.58447l-0.28065,0.52868l-0.09459,0.10506l-0.04378,0.13442l-0.33212,0.52993l-0.1641,0.15785l-0.09515,0.20687l-0.18966,0.23643l-1.25143,3.0066l-0.44858,0.60325l-0.38765,0.6441l-0.0584,0.05824l-0.39198,1.07502l-0.19901,1.09153l-0.19223,1.21421l-0.03498,0.08228l0.00381,0.08933l-0.5978,2.91461l-0.05509,0.11484l-0.0028,0.12734l-0.19927,0.72865l-0.05377,0.0957l-0.00851,0.10944l-0.04921,0.14721l-0.54903,2.92026l-0.08712,0.18955l-0.00985,0.20838l-0.73493,2.44307l-0.18936,1.03868l-0.18255,2.54865l-0.06499,1.10188l-0.01071,0.03414l0.00598,0.03528l-0.05184,0.67221l0.06238,2.92387l-0.00937,0.04118l0.01024,0.04098v1.07526l0.04472,0.14492l0.79981,1.96345l0.05477,0.38352l0.16236,0.35174l0.42929,2.26286l0.27795,0.94252l0.00064,0.01536l0.00769,0.01331l0.26569,0.92736l0.01187,0.34845l0.11789,0.32811l0.11041,1.10091l0.53093,2.41215l0.21739,0.81299l0.52085,1.60549l0.01976,0.02816l1.13369,1.30913l0.15145,0.29909l0.23734,0.23677l0.79707,1.32482l0.05778,0.18905l0.1252,0.15298l0.53137,1.1261l0.00511,0.02575l0.01636,0.02053l0.19121,0.41953l0.53624,0.77785l1.0791,1.56044l0.47557,0.43476l0.15447,0.2331l0.22451,0.16672l0.46644,0.56853l4.14676,4.07186l2.17184,2.06278l0.94381,0.33399l0.37268,0.05718l0.35715,0.02968l1.42009,-0.10893l0.1485,0.02525l0.14613,-0.03653h0.57083l0.41886,-0.03481l0.18953,-0.0378l0.84587,-0.29342l0.19977,-0.23907l0.32167,-0.23441l0.24277,-0.3154l2.25834,-1.7885l0.03299,-0.01492l0.0226,-0.02828l0.4632,-0.35325l0.09081,-0.1698l0.49012,-1.03865l0.31731,-0.3877l0.22018,-0.45002l1.21815,-1.44623l1.41003,-2.25995l0.11705,-0.43775l0.0471,-0.08495l0.00636,-0.09692l0.53137,-1.65602l0.07789,-0.1255l0.0207,-0.14625l1.11042,-2.73592l0.97198,-2.5849l0.41551,-1.13953l0.43715,-2.3433l0.05653,-0.67653l-1.28688,-0.89201l-0.3124,-1.96065l0.25306,-2.90225l0.06307,-5.47222l-0.38925,-6.08157l0.06862,-0.37486l-0.04292,-0.37867l0.54489,-4.10018l-0.00785,-0.08612l-0.26581,-1.16639l-0.45486,-1.81449l-0.00002,-0.03611l-0.01643,-0.03216l-0.14951,-0.64613l-0.51538,-1.44847l-0.04184,-0.04025l-0.3321,-0.52993l-0.23387,-0.71813l-0.30145,-0.69249l-0.06643,-0.39745l0.00254,-0.03189l-0.01558,-0.04784l0.01148,-0.02143l-0.02124,-0.05481l-0.06642,-0.52993l0.02929,-0.24229l-0.05919,-0.23676v-0.72865l0.06742,-0.26968l-0.0285,-0.27652l0.05837,-0.40751z" data-paper-data="{&quot;index&quot;:null}" fill="#fffd94"/><path d="M208.51614,151.04614c-0.09924,0.3175 1.83552,0.50063 3.81325,0.70917c0.43307,-0.16858 0.90417,-0.26108 1.39687,-0.26108c0.98454,0 1.88281,0.36934 2.56382,0.97703c0.23436,0.20913 0.44298,0.44647 0.62054,0.70671c8.91622,8.8945 8.0035,21.54951 8.32068,33.61603c0.15623,5.94324 1.83131,10.88858 -0.63492,16.55425c-4.37019,10.03964 -16.1347,13.77837 -23.34465,5.08742c-0.77056,-0.92884 -2.985,0.00726 -3.80241,-1.12217c-5.71892,-7.90196 -11.51654,-31.71937 -8.69748,-41.08669c0.69405,-2.30623 8.83154,-16.33218 11.25437,-18.43622c3.74411,-3.25146 10.40017,-2.79165 8.50994,3.25555z" data-paper-data="{&quot;index&quot;:null}" fill="#fffc3b"/><path d="M215.63976,185.63679l0.04419,0.32683l-0.01601,0.14413l0.04364,0.1383l0.13285,2.18596l-0.01582,0.08486l0.02236,0.08337l0.06548,3.85323l0.06392,1.40235l-0.13483,0.66711l-0.04344,0.67921l-0.4038,1.26559l0.01287,0.04745l-0.0596,0.09903l-0.01443,0.04524l-0.47957,0.77553l-0.39816,0.66152l0.44178,-0.14686l0.07478,-0.02796l0.08231,-0.12769l0.31904,-0.50909l0.04198,-0.04038l0.01966,-0.05483l0.53137,-0.79489l0.04732,-0.04291l0.02349,-0.0594l0.22851,-0.31903l0.36646,-0.62653l0.13369,-0.23331l0.37014,-0.89648l0.08562,-0.11583l0.0314,-0.14058l0.17224,-0.34354l0.18636,-0.40268l-0.00002,-0.00159l0.13458,-0.57042l-0.02729,-0.43555l-0.06148,-0.6743l0.02741,-0.1765l-0.04332,-0.17328v-0.52993l0.09331,-0.37322l-0.01809,-0.38429l0.04344,-0.21662l-0.03632,-0.39845l0.016,-0.10299l-0.35345,-1.25888l-0.00912,-0.31724l-0.11059,-0.29748l-0.04493,-0.40325l-0.15849,-0.73758l0.00658,-0.19752l-0.06886,-0.18524l-0.04155,-0.373l-0.14865,-0.64238l0.00311,-0.17671l-0.06595,-0.16397l-0.26569,-1.92098l0.02884,-0.26712l-0.06516,-0.26065v-0.02738l-0.46888,-1.76645l-0.0021,-0.1449l-0.06052,-0.13167l-0.11581,-0.61602l-0.08185,-0.18366l-0.11269,-0.64016l-0.20823,-0.61575l-0.18458,-2.27029l-0.16769,-0.94766l0.00621,-0.08881l-0.03261,-0.08284l-0.19446,-1.48681l-0.19375,-1.2882l0.00133,-0.01384l-0.00525,-0.01287l-0.26569,-1.85475l-0.00079,-0.00549l-0.09338,-0.23282l-0.0228,-0.16601l-0.05793,-0.09639l-0.00478,0.06461l0.06896,0.22689l0.26088,5.20338l0.2561,2.55409l-0.01521,0.10411l0.03025,0.10077l0.12496,2.67938l0.15754,1.16526c0.57205,0.6722 0.91727,1.5434 0.91727,2.49524c0,0.45861 -0.08014,0.8985 -0.22718,1.30643c-0.03836,0.11478 -0.07741,0.26111 -0.11743,0.43403zM217.22434,158.69645c0.06103,0.05723 0.12019,0.11642 0.17738,0.17748l0.1739,0.10402l0.59779,0.59616l0.39853,0.39744l0.16612,0.27601l0.2455,0.20859l0.3321,0.46369l0.00407,0.01029l0.00839,0.00721l0.79707,1.1261l0.06807,0.175l0.13008,0.13541l0.24259,0.42338l0.05137,0.02935l0.24117,0.96466l0.27034,0.9569l-0.02998,0.051v0.60639l0.0518,0.36159l0.33029,1.08231l0.20452,0.50992l0.06301,0.45888l0.17493,0.42889l0.06643,0.46369v0.00002l0.00001,0.00001l0.26377,1.84139l0.19725,1.31148l-0.00364,0.03791l0.01395,0.03544l0.188,1.43742l0.18413,1.04057l-0.01288,0.18417l0.05915,0.17489l0.147,1.80809l0.07543,0.4285l0.18887,0.41094l0.17304,0.92043l0.56142,2.11506l0.00726,0.50161l0.12167,0.48668v0.2648l0.20561,1.48659l0.16018,0.69222l-0.00401,0.2281l0.0795,0.21383l0.04492,0.40322l0.15848,0.73755l-0.00658,0.19749l0.06886,0.18521l0.03164,0.28393l0.38003,1.35356l0.01519,0.52843l0.12822,0.51286v0.22224l0.05051,0.55416l-0.0274,0.17645l0.04331,0.17323v0.33121l-0.09331,0.37322l0.01809,0.38429l-0.0559,0.2787l0.04878,0.53502l-0.0086,0.05541l0.01697,0.05344l0.06642,1.05985l-0.10293,0.55807l0.00754,0.56743l-0.25075,1.06282l-0.05364,0.26744l-0.19553,0.41221l-0.08548,0.44816l-0.39853,0.86114l-0.03886,0.04821l-0.0135,0.06043l-0.13606,0.27138l-0.41113,0.99575l-0.14979,0.20265l-0.06852,0.2425l-0.26571,0.46369l-0.01221,0.01271l-0.00494,0.01692l-0.46494,0.79489l-0.12677,0.12963l-0.06668,0.16861l-0.29589,0.4131l-0.46527,0.69601l-0.30198,0.48187l-0.01824,0.01755l-0.00814,0.02396l-0.5978,0.92737l-0.10371,0.09725l-0.05534,0.13096l-0.19849,0.26394l-0.00747,0.05926l-0.78049,0.57965l-0.75533,0.61207l-0.05925,-0.00749l-0.79587,0.33071l-0.07027,0.01054l-0.05853,0.04029l-0.53138,0.19872l-0.07254,0.00822l-0.06163,0.03915l-0.25867,0.08599l-0.2852,0.15801l-0.5752,0.15361l-0.53818,0.25459l-0.66421,0.13249l-0.23535,-0.01133l-0.22355,0.07446l-0.54166,0.04155l-0.02528,0.02067l-0.09433,-0.0115l-0.20223,0.01551l-0.83424,-0.14185l-0.84,-0.10239l-0.18937,-0.07264l-0.09368,-0.01593l-0.01833,-0.02703l-0.52904,-0.20293l-0.69737,-0.25289l-0.05198,-0.03502l-0.06211,-0.00841l-0.3321,-0.13249l-0.52696,-0.37984l-0.57842,-0.29563l-0.53138,-0.46368l-0.34311,-0.49265l-0.42502,-0.42401l-0.19926,-0.33121l-0.01928,-0.06307l-0.04511,-0.04811l-0.52451,-0.94155l-0.27383,-0.355l-1.73061,-1.5533l-0.25577,-0.37842l-0.34271,-0.30195l-0.73065,-1.05985l-0.09525,-0.25414l-0.17684,-0.20587l-0.25262,-0.50389l-1.10189,-1.77043l-0.01325,-0.04111l-0.03037,-0.03071l-0.86349,-1.45731l-0.03949,-0.13238l-0.09002,-0.10479l-0.86348,-1.72226l-0.04272,-0.19126l-0.11224,-0.16064l-0.5156,-1.34977l-0.71393,-1.74759l-0.05259,-0.36563l-0.15831,-0.33375l-0.26569,-1.32483l0.00618,-0.13131l-0.04829,-0.12227l-0.3321,-2.51716l0.00903,-0.07899l-0.02621,-0.07506l-0.06644,-0.72864l0.00299,-0.01925l-0.00624,-0.01846l-0.19924,-2.45093l0.02602,-0.15737l-0.03869,-0.15475v-1.05985l0.05919,-0.23677l-0.02929,-0.24229l0.1311,-1.04599l0.112,-0.94935l0.06111,-1.88955l0.1215,-0.42683l0.00723,-0.44373l0.48849,-1.82685l0.17034,-0.96263l0.17745,-0.39723l0.06696,-0.42988l0.53138,-1.25858l0.38662,-0.51445l0.3024,-0.56805l0.05902,-0.0654l0.34286,-1.0258l0.24707,-0.38755l0.14233,-0.43702l0.66423,-1.05985l0.15187,-0.14608l0.08637,-0.19221l0.64472,-0.81831l0.30976,-0.65646l0.22305,-0.55611l0.35518,-0.49082l0.26413,-0.54525l0.33211,-0.39745l0.18183,-0.1325l0.03069,-0.0424l0.03396,-0.00471l1.10024,-0.80176l0.0891,-0.12069l0.09297,-0.01198l0.07576,-0.05521l0.14768,0.02641l1.65269,-0.21302l0.90132,0.10575l0.04112,-0.02063l0.10677,0.03798l0.07994,0.00938l0.83883,0.31744l0.26243,0.09335l0.05063,-0.0112l0.09348,0.06246l0.43848,0.15597l0.06703,0.04456l0.10599,0.04011l0.01802,0.04233l0.20751,0.13796l0.25199,0.27648c0.32086,-1.80356 1.89677,-3.17294 3.79251,-3.17294c0.14272,0 0.28363,0.00777 0.42233,0.02289l0.05417,-0.02351l0.10566,0.04433c0.654,0.09913 1.25401,0.3627 1.75657,0.74723l0.23426,0.17521l0.06162,0.07564zM205.39943,181.9232c0.56533,-0.26624 1.20002,-0.50004 1.87045,-0.69017l-0.01793,-0.13265l0.01904,-0.17144l-0.04959,-0.16521l-0.12806,-2.74573l-0.25543,-2.5474l0.01422,-0.09733l-0.02861,-0.09412l-0.17693,-3.52897l-0.22301,0.41892l-0.16186,0.17936l-0.1095,0.25934l-0.12365,0.69878l-0.06905,0.15458l-0.00276,0.16928l-0.41696,1.55935l-0.0521,1.61079l-0.0458,0.16089l0.02128,0.16592l-0.13285,1.1261l-0.0051,0.01345l0.00173,0.01428l-0.10293,0.82125v0.66307z" data-paper-data="{&quot;index&quot;:null}" fill="#fffb10"/><path d="M201.10892,164.19496c2.9255,-6.16818 7.53753,1.36393 9.5266,1.54471c0.05577,-0.0024 0.11185,-0.00361 0.16821,-0.00361c1.43727,0 2.6907,0.78713 3.35273,1.95382c0.20112,0.35442 0.34766,0.74387 0.42819,1.15693c0.52502,1.6212 1.0595,3.86012 1.28361,4.36364c3.81534,8.57222 0.01776,15.71967 -2.20866,23.33132c-0.64748,2.21361 0.31663,4.6537 -3.8522,4.6537c-5.76727,0 -2.89373,-4.43088 -3.79624,-7.06541c-2.74955,-8.02624 -9.05641,-21.17639 -4.90224,-29.93511z" data-paper-data="{&quot;index&quot;:null}" fill="#fffb00"/><path d="M199.79521,159.55341c2.39721,-4.07496 10.16179,-1.57434 13.56182,-1.63632c0.22743,-0.04184 0.46184,-0.0637 0.70137,-0.0637l3.31989,1.89708c1.78185,1.01819 1.35692,10.88226 1.3958,13.12329c0.13714,7.90522 4.63886,29.16314 -8.18117,29.94816c-4.46376,0.27333 -7.21995,-6.01294 -8.64274,-9.10602c-4.12867,-8.97554 -7.61036,-24.88902 -2.15497,-34.16251z" data-paper-data="{&quot;index&quot;:null}" fill="#f3ef00"/></g></g></svg>