<svg version="1.1" xmlns="http://www.w3.org/2000/svg" xmlns:xlink="http://www.w3.org/1999/xlink" width="302.68327" height="134.43378" viewBox="0,0,302.68327,134.43378"><g transform="translate(-83.94162,-52.94571)"><g data-paper-data="{&quot;isPaintingLayer&quot;:true}" fill-rule="nonzero" stroke="none" stroke-width="0.5" stroke-linecap="butt" stroke-linejoin="miter" stroke-miterlimit="10" stroke-dasharray="" stroke-dashoffset="0" style="mix-blend-mode: normal"><path d="M317.81548,185.68584l-14.28326,0.48286l-0.1696,-0.03636l-0.16827,0.04207h-27.72011l-12.95374,0.93952l-0.26264,-0.04578l-0.25727,0.06991l-11.8623,0.24143l-0.55764,-0.12741l-0.56533,0.08712l-12.96841,-1.1975l-13.4524,-0.95828l-0.11517,-0.03767l-0.1198,0.01814l-5.08391,-0.48285l-0.38279,-0.13526l-0.40497,0.02871l-12.34651,-2.17287l-0.25113,-0.1119l-0.27489,0.0047l-9.80848,-2.27484l-13.18511,-1.38413l-0.38497,-0.14034l-0.40902,0.02462l-7.74691,-1.44858l-0.05623,-0.02578l-0.06179,0.00297l-7.17678,-1.43146l-7.52165,-1.36383l-9.05352,-0.92603l-11.85978,-1.2069l-1.15002,-0.4151l-1.21657,-0.1217l-4.83962,-1.73751l-9.61058,-0.85194l-1.48769,-0.51522l-0.68775,0.1568l-1.26417,-0.83279l-1.43047,-0.4954l-0.29453,-0.64097l-1.31474,-0.86611l-2.19399,-2.38693l-5.03316,-4.14651l-0.36438,-0.49278l-0.51772,-0.32798l-4.5997,-4.82859l-0.06019,-0.10607l-0.20349,-0.06462l-1.0758,-2.18982l-1.20412,-2.12196l0.06116,-0.20456l-0.05378,-0.10946l-0.72631,-3.38003l0.01182,-0.35463l-0.13399,-0.32855l-0.03219,-0.22475c-1.26784,-1.60377 -2.53505,-3.81258 -3.42978,-5.30532c-3.33274,-5.56029 -8.86662,-12.03711 -9.49413,-18.69919c-0.53305,-5.6593 2.38579,-10.06787 4.99652,-14.73138c1.5762,-2.81554 3.39664,-5.0835 5.41888,-7.08291l-0.17183,-0.44014l2.16943,-4.67505l6.54305,-8.1003l0.00771,-0.09687l0.20714,-0.16912l0.26266,-0.32518l1.78774,-1.34883l1.73477,-1.41631l0.37825,-0.17793l0.21347,-0.16106l0.09593,0.01551l12.14307,-5.71225l0.26297,-0.05186l0.21621,-0.15842l10.65189,-4.34572l0.33622,-0.0482l0.28671,-0.18212l7.98888,-2.65574l0.53885,-0.04101l0.48429,-0.2398l38.73423,-8.45007l0.49168,0.01485l0.4598,-0.17478l56.89093,-6.76001l0.6919,0.08814l0.67979,-0.15616l25.1772,0.48287l0.88145,0.23841l0.91219,-0.04118l46.48108,9.41576l1.73756,0.82832l1.81357,0.64513l28.3244,18.83151l0.99713,1.09407l1.18954,0.88106l17.49517,21.27068l0.3147,0.66272l0.52043,0.51709l10.11108,16.72954l2.36307,3.21364l5.05152,6.71698l0.23519,0.55653l0.42101,0.43335l2.66299,4.58717l0.71183,2.46616l0.52359,0.58616l-0.07521,0.96728l0.26905,0.93214l-0.39439,0.67984l-0.19897,2.55912l-0.72628,2.17287l-0.82675,1.29683l-0.57776,1.4253l-1.93671,2.65572l-0.78237,0.65328l-0.5647,0.84852l-5.53698,5.04172l-3.35837,3.11003l-0.94736,0.52006l-0.7702,0.75812l-5.32596,3.13859l-1.41384,0.41812l-1.30574,0.68471l-7.74707,1.87929l-7.12977,3.76429l-0.63092,0.15493l-0.53514,0.36836l-9.68356,3.62144l-0.40732,0.04618l-0.35522,0.2046l-15.25159,4.34574l-1.22454,0.03994z" data-paper-data="{&quot;index&quot;:null}" fill="#fbff00"/><path d="M314.08836,177.72437c-1.12156,0 -2.2,-0.18464 -3.20658,-0.52518l-0.29104,-0.02341l-0.09452,-0.11597c-3.15194,-1.21361 -5.53413,-3.97754 -6.21227,-7.35749l-0.5567,0.21671l-13.31486,1.69001l-0.00258,-0.00031l-0.00242,0.00094l-17.18832,2.17287l-0.51493,-0.06169l-0.49997,0.13778l-30.26111,0.72427l-0.7021,-0.15778l-0.71381,0.09117l-24.45099,-2.89714l-0.57688,-0.21906l-0.61706,0.00348l-22.75633,-5.55288l-1.22867,-0.64642l-1.33754,-0.3721l-14.63967,-8.31068l-12.09865,-3.29066l-0.22632,-0.12676l-0.27003,0.05972l-1.95203,-1.30423l-2.04828,-1.14717l-0.06938,-0.26771l-0.21569,-0.14411l-3.87446,-4.27063l-7.59401,-5.40952l-0.86271,-1.0101l-1.06648,-0.79196l-2.17883,-2.65574l-0.31546,-0.66645l-0.52202,-0.52073l-0.72631,-1.20713l-0.1819,-0.59504l-0.38356,-0.48994l-0.96835,-2.17287l-0.08452,-0.48011l-0.28636,-0.24094l-0.14189,-2.19173l-0.38079,-2.16305l0.22121,-0.30186l-0.03149,-0.48647l0.93126,-5.10807l-0.05308,-0.14108l1.13391,-2.36661l1.08277,-2.39044l0.14217,-0.0501l4.4678,-5.39363l0.70449,-0.51801l0.14897,-0.49693l1.73167,-0.88591l1.56709,-1.15228l0.51107,0.08912l0.77848,-0.39826l7.84584,-1.81966l1.46052,-2.56352l0.22082,-0.23101l0.01301,-0.30291l1.73296,-1.52364l1.59445,-1.66804l0.30318,-0.00039l0.24,-0.21101l34.01146,-17.54425l0.00226,-0.00481l0.02019,-0.00678l1.06896,-0.55141l1.92349,-0.45292l1.8734,-0.62875l1.19907,-0.09472l0.02073,-0.00488l0.00446,0.00289l46.63743,-3.68399l0.03522,-0.03035l0.15788,0.0151l0.84716,-0.06692l2.05311,0.3443l2.07232,0.19819l0.80106,0.28366l0.15642,0.02623l0.02617,0.03843l32.30362,11.43889l0.15057,-0.02924l2.11161,1.49122l2.15478,1.42814l0.02728,0.15094l17.58874,20.42427l0.38989,0.77529l0.4632,0.2286l0.26331,0.8344l0.8168,0.43125l0.38301,0.34328l0.48459,0.17238l11.48883,7.63836l0.79691,0.30817l1.64966,0.36471l9.68356,4.82861l1.80674,1.54522l0.76539,0.18741l0.53383,0.92376l0.81082,0.69345l0.04457,0.78674l1.18952,2.05841l1.45254,5.07003l0.00584,0.17136l0.08079,0.15124l1.3308,5.30879l1.553,2.51675l0.11355,0.05376l0.09456,0.2835l0.07599,0.12315l0.71436,2.24634l0.74585,2.23608l0.01113,0.14429l0.09057,0.2848l-0.0601,0.11033l0.20045,2.59918l-0.18133,1.06913l0.25476,0.52694l-0.63221,1.69846l-0.30305,1.78678l-0.48435,0.3286l-0.37828,1.01628l-3.14711,4.58717l-1.224,1.08332l-1.0324,1.26725l-1.93671,1.44858l-1.48014,0.62094l-1.35488,0.86064l-3.63134,1.20714l-0.2589,0.0197l-0.22594,0.12794l-3.91689,1.08506l-6.12052,2.31525l-2.93729,1.46464l-1.45546,0.32177l-1.36725,0.59374l-2.71951,0.45203c-0.5918,0.10915 -1.20186,0.16619 -1.82524,0.16619zM260.6063,98.84335l0.17396,0.05758l0.18159,-0.02459l2.04238,0.22633l2.76826,0.23005l0.13347,0.0454l0.11172,-0.01513l-13.54239,-4.79544l-7.64655,0.60402l13.75535,3.52053z" data-paper-data="{&quot;index&quot;:null}" fill="#fcff40"/><path d="M317.42658,121.65853l-2.03105,-1.28897l-0.05361,0.05959l-0.05678,0.49297zM264.58853,154.28691l-31.47159,1.93143l-0.50089,-0.09305l-0.49866,0.10434l-24.93513,-0.96571l-0.46609,-0.13589l-0.48251,0.05379l-17.91456,-2.4143l-0.57932,-0.23068l-0.62352,-0.00728l-9.19944,-2.4143l-0.11341,-0.0622l-0.12926,-0.00477l-14.62825,-4.23538l-7.84234,-1.61019l-0.54282,-0.26053l-0.60037,-0.04568l-2.17887,-0.72429l-0.31445,-0.19974l-0.3684,-0.05525l-5.81008,-2.41432l-1.08707,-0.80736l-0.65669,-0.03577l-1.07249,-1.24848l-1.32133,-0.98134l-0.0822,-0.6525l-0.88235,-1.02714l-1.45252,-2.89716l-0.55441,-2.48207l-0.48863,-0.6165l0.13361,-0.97292l-0.21408,-0.95843l0.43565,-0.65502l0.346,-2.51959l0.48417,-1.20713l0.37767,-0.52189l0.16765,-0.62201l2.4209,-4.34574l0.73043,-0.77899l0.48856,-0.94956l3.38918,-3.8629l0.73558,-0.50936l0.16647,-0.49853l1.74662,-0.82622l1.58851,-1.09998l0.515,0.10494l0.80879,-0.38259l6.05229,-1.20713l0.1649,0.00794l0.15143,-0.06576l7.26267,-1.20716l0.37834,0.03043l0.35841,-0.12493l2.6629,-0.24142l0.0704,0.01097l0.0676,-0.02252l6.29436,-0.48287l0.38552,0.06555l0.37938,-0.09484h8.1581l6.50339,-1.04609l8.02032,-1.64673l0.38449,0.01634l0.3585,-0.13993l9.44147,-1.20716l0.28498,0.03373l0.27276,-0.08921l3.14389,-0.22394l7.72623,-0.93395l11.28716,-1.40706l6.2809,-1.19106l0.22626,0.01304l0.20977,-0.08578l19.79529,-2.85419l0.22341,0.02282l0.21139,-0.07582l2.23991,-0.22337l17.49224,-2.3897l0.68502,0.07511l0.66855,-0.16714h14.04114l1.29251,0.32313l1.332,0.02742l5.22356,1.42073l6.67554,1.66436l0.47415,0.25249l0.53424,0.05623l9.92564,3.62145l0.79199,0.53584l0.91513,0.27732l3.6313,2.17287l0.09556,0.09533l0.1281,0.04253l7.26239,4.60894l2.11044,0.87694l1.15469,0.85755l1.30374,0.60742l3.87344,3.13861l0.49386,0.65665l0.48209,0.13525l0.9324,1.74552l1.18947,1.58157l-0.08068,0.49416l0.38712,0.72472l0.48419,1.93142l0.00027,0.4087l0.16312,0.37474l0.24207,1.44858l-0.03328,0.41828l0.13532,0.39719l0.15833,1.89467l0.03531,0.04096l-0.01701,0.17814l0.06546,0.78338l-0.33838,2.07558l-0.19984,2.09346l-0.26227,0.74107l-0.02879,0.17662l-0.04456,0.03065l-0.84849,2.3975l0.02362,0.08708l-0.13215,0.21957l-0.1599,0.45183l-1.22339,1.84656l-1.14222,1.89784l-0.33937,0.33845l-0.14154,0.21363l-0.08879,0.01606l-0.64076,0.63901l-1.46737,0.87771l-1.32272,1.08349l-9.19937,4.34574l-0.05024,0.00999l-0.03995,0.03206l-6.29434,2.89716l-1.2033,0.22692l-1.11165,0.51346l-10.1677,1.93143l-0.94648,-0.05425l-0.91973,0.22993h-1.69461l-0.69641,-0.1741l-0.714,0.07414l-2.41167,-0.34358l-3.37163,0.18679l-0.82352,-0.15807l-0.83096,0.11255l-1.94962,-0.21603l-7.19969,-0.46324c-0.58961,-0.03296 -1.16559,-0.117 -1.72357,-0.24777l-19.72011,3.93329l-0.68735,-0.03309z" data-paper-data="{&quot;index&quot;:null}" fill="#ffee40"/></g></g></svg>