<svg version="1.1" xmlns="http://www.w3.org/2000/svg" xmlns:xlink="http://www.w3.org/1999/xlink" width="193.20355" height="67.8787" viewBox="0,0,193.20355,67.8787"><g transform="translate(-204.78105,-145.69427)"><g data-paper-data="{&quot;isPaintingLayer&quot;:true}" fill="#f0ff00" fill-rule="nonzero" stroke="none" stroke-width="0.5" stroke-linecap="butt" stroke-linejoin="miter" stroke-miterlimit="10" stroke-dasharray="" stroke-dashoffset="0" style="mix-blend-mode: normal"><path d=""/><path d=""/><path d=""/><path d=""/><path d=""/><path d="M268.74944,171.09712c0.73595,-0.64076 1.74468,-0.64076 1.74468,-0.64076l1.49943,0.01027c7.88348,0.72443 15.22004,1.26587 23.1876,0.94838c4.94373,-0.197 9.60524,-2.09441 14.46583,-2.84861c3.22965,-0.31937 6.51727,-0.25516 9.69166,-0.93036c2.82887,-0.60171 5.45856,-1.97857 8.2945,-2.54604c4.0985,-0.8201 9.04806,-1.31397 13.19926,-1.31735c6.40454,-0.00521 12.80261,1.68164 19.24997,1.27852c4.31528,-0.26981 8.58285,-2.09662 12.94836,-1.91451c5.98896,0.24984 12.56125,2.71051 18.22038,4.5762c1.14536,0.3776 2.52534,0.38829 3.41062,1.20725c1.47343,1.36307 2.21525,3.34791 3.32287,5.02187c-12.80109,7.14615 -28.59781,9.48561 -42.84275,11.04385c-6.62475,0.72468 -13.23314,-0.66511 -19.81604,-0.93793c-6.41625,-0.26591 -12.84379,0.49417 -19.16014,1.54731c-7.13588,1.57381 -14.79094,2.17917 -22.36345,2.25367c-0.02998,0.12221 -0.06895,0.24088 -0.11616,0.35529l-1.35136,3.50394l-0.16168,-0.06236c-0.11144,0.31752 -0.2434,0.62779 -0.40142,0.92886c-0.5164,0.98388 -2.0848,0.80351 -3.03356,1.3819c-1.21089,0.7382 -2.27499,1.6939 -3.4089,2.54563c-5.8744,4.41249 -11.8094,5.91669 -18.72352,5.82405c1.16642,1.60119 1.76273,3.45625 3.9573,4.53067l0.0846,0.10067l0.02225,-0.03346l2.43703,1.62029c0.69081,0.44484 1.14831,1.22071 1.14831,2.10344c0,1.26197 -0.93505,2.30555 -2.15013,2.47571l-2.56773,0.40433l-0.01259,-0.07995c-0.18165,0.04419 -0.36586,0.07942 -0.55308,0.10412c-1.36675,0.18034 -2.62596,-0.85324 -3.97075,-1.15665c-6.80983,-1.53643 -12.80247,-1.97145 -17.58095,-7.8734c-1.92481,-2.37735 -2.85774,-5.42398 -4.57965,-7.95216c-0.66949,-0.98298 -1.51638,-1.84495 -2.32216,-2.73183c-0.19348,0.05294 -0.3801,0.11306 -0.55575,0.18474c-6.08627,2.4837 -13.70959,0.58211 -20.17523,0.81701c-1.55293,0.05642 -3.10703,0.17474 -4.64479,0.39849c-1.9809,0.28823 -3.9496,1.59887 -5.89697,1.13541c-1.67632,-0.39896 -3.15503,-1.87564 -3.846,-3.45417c-1.2346,-2.82046 0.14998,-7.93077 0.06145,-10.90824c-0.04101,-1.37942 -0.43847,-2.725 -0.6577,-4.08751c0,0 -0.38697,-2.46987 2.0829,-2.85684c2.15567,-0.33774 2.72468,1.50073 2.83456,1.97395l0.27763,-0.07131c7.36725,-0.86957 14.881,-2.78174 22.2107,-1.12639c1.19025,-1.47935 3.72807,-4.64115 4.01667,-5.12023c2.096,-3.47931 2.2786,-8.22454 4.30311,-11.85355c1.5135,-2.713 4.74666,-5.98033 6.96082,-8.14118c1.31108,-1.27951 6.4161,-4.79922 8.29966,-3.3627c1.68755,1.28703 1.29338,4.11036 1.30085,6.23267c0.0061,1.73372 -0.40715,3.42531 -0.84487,5.11713c1.17856,-1.19842 2.67616,-2.20506 4.23641,-3.42134c4.07903,-3.1798 8.03179,-7.27002 13.12351,-8.87261c0.9678,-0.30461 8.5564,-1.48778 9.31734,0.02916c2.56881,5.12095 -3.97876,9.12594 -6.69138,11.68163c-3.65774,3.44614 -7.53925,7.60151 -8.96322,12.33896c0.68034,0.0679 1.15326,0.31154 1.48166,0.62607zM275.21217,186.92124c-0.54833,0.02772 -1.09252,0.13025 -1.63438,0.27195c0.58562,-0.09282 1.14212,-0.19491 1.63438,-0.27195z"/></g></g></svg>