<svg version="1.1" xmlns="http://www.w3.org/2000/svg" xmlns:xlink="http://www.w3.org/1999/xlink" width="775.82683" height="168.90328" viewBox="0,0,775.82683,168.90328"><g transform="translate(144.67718,-45.20077)"><g data-paper-data="{&quot;isPaintingLayer&quot;:true}" fill-rule="nonzero" stroke="none" stroke-width="0.5" stroke-linecap="butt" stroke-linejoin="miter" stroke-miterlimit="10" stroke-dasharray="" stroke-dashoffset="0" style="mix-blend-mode: normal"><path d="M348.99434,164.14557c1.50457,0.37829 7.02823,1.93937 8.60649,3.21526c1.09365,0.88412 1.75399,2.19887 2.61446,3.31122c2.93623,3.79574 8.41335,8.62018 8.0863,13.96576c-0.09882,1.6151 -1.27979,3.03083 -2.34028,4.25299c-3.34384,3.8536 -7.80331,5.88685 -12.58637,6.88066c-9.94708,1.60898 -22.23186,3.91753 -32.03795,0.36635c-2.09327,-0.75806 -4.05751,-2.29948 -5.66632,-4.26559c-0.35607,0.34685 -0.72678,0.67635 -1.12783,0.97017c-3.51665,2.57644 -4.8111,2.01423 -8.83423,3.6447c-7.47931,3.03118 -14.99011,5.88491 -23.26251,5.40976c-3.91412,-0.22482 -5.25285,0.1453 -8.53797,-1.39394c-3.42261,-1.60367 -6.36657,-4.15314 -9.10445,-6.75891c-0.39149,-1.15044 -0.98215,-2.26449 -1.43278,-3.40413c-1.77882,0.87076 -3.57809,1.66828 -5.26369,2.48623c-1.59675,0.77484 -3.11143,1.75225 -4.79426,2.31623c-6.15368,2.06229 -13.3373,2.32552 -19.75482,2.2959c-4.83772,-0.11336 -13.92911,0.42403 -17.6288,-3.54519c-0.05579,-0.05985 -0.11077,-0.11969 -0.16494,-0.17948c-1.10421,0.66411 -1.90853,1.14148 -1.98327,1.1704c-4.19464,1.62316 -10.19361,1.46067 -14.61106,1.72453c-3.5198,-0.12403 -9.46202,0.02369 -12.41132,-2.44419c-0.43258,-0.36197 -0.80645,-0.8012 -1.13119,-1.29434c-0.3827,0.15897 -0.75961,0.31722 -1.12883,0.47571c-10.96481,2.12939 -21.86624,1.33211 -30.95335,-5.67713c-1.54966,-1.19532 -3.50629,-2.0868 -4.49732,-3.77444c-1.09207,-1.85969 0.2751,-7.79262 1.14052,-9.18572c0.82759,-1.3322 2.49445,-1.92351 3.56861,-3.06624c0.79227,-0.84284 1.12519,-2.07373 1.98761,-2.84463c0.30853,-0.27579 8.07614,-5.04154 8.33407,-5.20052c4.25641,-2.62354 8.51283,-5.24708 12.76924,-7.87062c0,0 2.1282,-1.31177 3.43998,0.81644c1.31177,2.12821 -0.81644,3.43998 -0.81644,3.43998c-1.56936,0.96732 -3.13874,1.93463 -4.7081,2.90195c6.13677,-1.71203 10.90307,-2.0384 17.24726,0.87597c0.14369,0.066 0.28897,0.12998 0.4354,0.1925c4.37231,-3.10525 8.57312,-5.75251 13.9606,-7.11702c4.59697,-1.1643 9.91962,0.29833 14.61617,0.09665c0,0 2.49802,-0.09964 2.59765,2.39838c0.09963,2.49802 -2.39838,2.59765 -2.39838,2.59765c-2.57782,0.09588 -5.51978,-0.38842 -8.36027,-0.55692c1.07003,0.44969 1.95545,1.31055 3.00846,1.81798c2.59331,1.24965 5.86327,1.47151 8.18594,3.23893c0.10034,0.07636 0.45653,0.6601 0.90937,1.43399c0.24094,-0.19869 0.48579,-0.39103 0.73491,-0.57614c8.27146,-6.14625 21.2171,-3.95704 30.8496,-4.75868c0,0 2.49141,-0.20703 2.69845,2.28438c0.0824,0.99153 -0.2626,1.62124 -0.70787,2.02008c2.04527,1.32077 3.5757,3.45712 5.76864,4.53308c1.34217,0.65853 3.23855,1.32233 5.04039,2.20067c1.32156,-1.61346 2.83864,-3.13213 4.59462,-4.70697c1.42154,-1.27491 2.6083,-2.88969 4.28712,-3.79952c2.64705,-1.43456 5.95329,-0.91413 8.90949,-1.48485c11.17737,-2.15788 23.15486,-1.56938 34.50258,-1.1974c0,0 2.49862,0.08306 2.41556,2.58168c-0.08306,2.49862 -2.58168,2.41556 -2.58168,2.41556c-1.92948,-0.06507 -3.88025,-0.13782 -5.84386,-0.20207c0.90074,0.41243 2.34584,1.16977 3.79096,1.95577c8.67998,-5.50957 19.24908,-7.57775 29.56969,-4.98288z" data-paper-data="{&quot;index&quot;:null}" fill="#f0ff00"/><path d="M537.56643,152.05613c0.60924,0.71273 0.72268,1.38664 0.62651,1.9506c3.04936,0.46328 6.04848,1.11244 8.73851,1.92781c4.48744,1.36017 8.44988,3.95964 12.99213,5.20842c6.98002,1.91898 14.33845,2.05571 21.30326,4.02268c3.77372,1.06576 7.17099,2.96229 10.7492,4.38897c3.45807,1.37878 7.38817,2.14291 11.03113,2.88061c3.03228,0.62533 5.99147,1.60971 8.87897,2.72689c1.73777,0.67234 3.83173,0.65384 5.28556,1.81928c1.3555,1.08662 2.8816,2.79469 2.61082,4.51073c-0.25963,1.6453 -2.34065,2.46304 -3.8292,3.21047c-1.82639,0.91705 -4.07584,0.39411 -6.0784,0.80213c-2.98298,0.60777 -5.99348,1.0876 -9.01337,1.47208c-11.13433,1.4176 -21.79675,5.16804 -32.77189,7.4062c-5.99362,1.22227 -12.00075,0.91428 -17.91799,2.61799c-4.73345,1.3492 -9.53302,2.7071 -14.18927,4.30218c-2.78717,0.9548 -4.54669,2.49907 -7.76707,2.83718c-1.59598,0.16756 -3.58123,0.38679 -4.76331,-0.69853c-0.45884,-0.42128 -0.63914,-1.00334 -0.70355,-1.64574c-0.66506,-0.69563 -1.23889,-1.67156 -1.95751,-2.24466c-2.38778,-1.90424 -4.83937,-3.51312 -7.28676,-5.14448c-1.49451,0.27471 -3.06227,0.19672 -4.58006,0.35931c-6.57918,0.33792 -13.14352,0.87447 -19.72374,0.22516c-4.5773,-0.45167 -9.26303,-0.86877 -13.12677,-3.57015c-2.98728,-2.08859 -5.84713,-5.31214 -7.80769,-8.96979c-2.99387,2.33674 -6.47757,4.25089 -9.43679,5.66565c-4.11318,1.96646 -8.5466,4.58434 -13.00928,5.66975c-6.38113,1.55201 -13.41077,1.13386 -19.91521,1.01822c-0.88442,-0.01607 -7.42235,0.02936 -8.81771,-0.52256c-2.07023,-0.81885 -3.95788,-1.90824 -5.555,-3.21823c-2.06762,1.18989 -4.03411,2.31708 -4.13278,2.35697c-4.6622,1.88469 -10.22614,2.19509 -15.12317,3.1855c-8.75204,1.77008 -17.17211,3.95648 -25.99125,1.24309c-4.71717,-1.48036 -10.99066,-3.32878 -14.53485,-7.06181c-1.32597,-1.39662 -2.11046,-3.23912 -2.90954,-4.99132c-0.68461,-1.50119 -1.47189,-3.06269 -1.51561,-4.71203c-0.10198,-3.84759 2.55189,-5.97766 4.72951,-8.64744c2.91578,-3.57475 6.30814,-6.03876 10.54606,-8.01098c3.708,-1.72561 8.02216,-1.21952 11.96748,-1.21976c6.77516,-0.00042 13.87565,1.10339 20.56051,0.03043c0,0 1.38964,-0.21882 2.24822,0.71425c1.33038,0.08272 2.68437,0.19 4.07593,0.30801c4.28214,0.86313 8.8155,2.26013 13.12811,4.05579c1.94646,-1.74207 3.95969,-3.53397 4.06653,-3.59933c2.75945,-1.68795 6.72788,-2.19533 9.74518,-3.11421c5.04654,-1.53686 10.20655,-3.65506 15.41545,-4.5705c3.01493,-0.52986 6.82612,-0.41495 9.90313,-0.41613c0,0 2.5,0 2.5,2.5c0,2.5 -2.5,2.5 -2.5,2.5c-0.13734,-0.00005 -0.27433,0.00049 -0.41099,0.00162c5.29957,0.29341 10.75965,1.32777 15.19648,3.31922c0.51829,-0.64296 1.11511,-1.2615 1.79605,-1.85053c0.34195,-0.2958 0.70057,-0.57559 1.07379,-0.84044c-0.00186,-0.48808 0.16955,-1.03827 0.66549,-1.61208c1.23507,-1.42899 2.61665,-0.84527 3.2184,-0.47442c3.83015,-1.56489 8.26172,-2.27049 11.9708,-2.8019c0,0 2.47501,-0.35261 2.82761,2.1224c0.35261,2.47501 -2.1224,2.82761 -2.1224,2.82761c-2.14448,0.30368 -4.5836,0.65344 -6.95827,1.24581c0.3652,0.15248 0.73355,0.30087 1.10445,0.44816c5.48203,-1.61872 11.29955,-1.23665 17.19349,-0.78599c0.5202,0.03978 2.67735,0.25665 4.787,0.47567c0.49807,-0.22673 0.90252,-0.40531 1.13093,-0.49803c2.98361,-1.21105 6.09889,-1.9168 9.26485,-2.20848c-0.42184,-0.44758 -0.68037,-1.05077 -0.68037,-1.71435c0,-1.38071 1.11929,-2.5 2.5,-2.5c0.21968,0 0.43275,0.02834 0.63574,0.08155l4.80884,1.15098l-0.04265,0.1782c0.67294,-0.04708 1.34154,-0.13145 2.00379,-0.27046c0.05652,-2.29164 0.22511,-4.53594 0.85056,-7.01831c0,0 0.62901,-2.41958 3.04859,-1.79056c2.41958,0.62901 1.79056,3.04859 1.79056,3.04859c-0.09503,0.35218 -0.17824,0.69994 -0.25108,1.04414c0.96989,0.02346 1.96343,0.0701 2.97083,0.13918c0.25249,-0.16695 0.50302,-0.32889 0.7516,-0.48384l1.20672,-1.0684c0,0 1.90033,-1.62442 3.52475,0.27591zM520.35999,193.01893c0.03397,0.02315 0.06812,0.0464 0.10247,0.06976c0.3925,0.26701 1.35538,0.72702 2.25258,1.3551c0.01345,-0.32738 0.02796,-0.65424 0.04253,-0.97849c-0.79559,-0.18175 -1.59509,-0.32816 -2.39757,-0.44638zM514.50262,165.56427c-0.26101,0.01529 -0.51646,0.03495 -0.76565,0.05921c-0.50051,0.04872 -0.98811,0.13538 -1.46529,0.25206c0.21415,0.13399 0.4268,0.2723 0.638,0.41415c0.53394,-0.23168 1.06517,-0.47371 1.59294,-0.72542z" data-paper-data="{&quot;index&quot;:null}" fill="#f0ff00"/><path d="M482.91672,200.98898c-2.42497,-0.60788 -1.81708,-3.03285 -1.81708,-3.03285l0.34603,-1.28089l-2.60837,-1.12284c0,0 -1.86051,-1.66989 -0.19062,-3.53039c1.57726,-1.7573 3.32457,-0.36502 3.51357,-0.20515c1.35389,-7.63282 4.80877,-16.22657 11.09087,-20.29866c0.95543,-0.61931 2.03293,-1.00625 3.11685,-1.38099c0.05362,-1.06226 0.00288,-2.17221 0.6364,-2.96941c2.73752,-3.4448 4.60637,-1.75302 7.94003,-2.42125c0.83637,-0.16765 1.5193,-0.78855 2.3244,-1.0704c4.31806,-1.5117 8.70144,-1.57686 12.54178,-4.50962c4.53138,-3.46049 8.46821,-7.66814 10.53342,-12.97265c0.42741,-1.09781 1.68816,-7.20302 2.64358,-7.53843c2.17299,-0.76285 4.55047,0.74306 6.78728,1.29126c0.00141,0.00035 6.75182,2.18229 7.72658,2.49736c12.5374,3.8806 23.75386,10.78491 35.29966,16.95192c6.36357,3.399 13.20654,7.1533 19.83932,9.9387c3.5315,1.48304 7.20478,2.60945 10.63563,4.36887c2.15104,1.10311 3.88217,2.92409 6.03956,4.01474c2.4189,1.22286 5.09093,1.87711 7.55776,2.99992l2.39102,0.66234c1.08347,0.27394 1.88526,1.25527 1.88526,2.42386c0,1.20177 -0.84796,2.20549 -1.97821,2.44547l-2.33008,0.54678c-1.72924,0.92616 -4.08151,0.79194 -5.89151,1.17874c-3.24739,0.69397 -6.4623,1.55109 -9.73379,2.12069c-7.00971,1.22045 -13.8333,2.73655 -20.86412,3.77782c-4.67303,0.69208 -9.76145,1.96395 -14.30763,3.24099c-5.11956,1.43811 -10.14207,4.14234 -15.30207,5.30091c-4.47615,1.00503 -7.86022,1.22216 -12.28904,2.58948c-4.71737,1.45255 -9.30352,3.14683 -13.82687,4.89703c-3.56171,1.37812 -7.41552,1.8473 -11.03983,3.05524l-2.64861,0.97315c-0.28378,0.11188 -0.59296,0.17333 -0.91648,0.17333c-1.38071,0 -2.5,-1.11929 -2.5,-2.5c0,-0.72781 0.31101,-1.38298 0.80738,-1.83986l1.83239,-1.69688c0.45464,-1.35344 0.62629,-2.73651 0.10233,-4.04929c-1.07974,-2.70527 -4.1191,-4.66121 -6.87417,-5.50234c-2.01759,-0.61598 -4.21929,-0.27056 -6.29604,-0.64097c-5.7545,-1.02637 -11.53197,-1.37035 -17.35491,-1.39643c-1.03871,-0.00465 -2.10626,-0.02494 -3.15909,0.03857l-0.62973,2.65508c0,0 -0.60788,2.42497 -3.03285,1.81708zM482.08013,192.28207c0.02416,-0.1446 0.04908,-0.28958 0.07476,-0.43491l-1.15519,0.81967c0.3544,-0.13808 0.71471,-0.26617 1.08043,-0.38476z" data-paper-data="{&quot;index&quot;:null}" fill="#f6ff66"/><path d="M311.19556,47.70077c0,-1.38071 1.11929,-2.5 2.5,-2.5c1.38071,0 2.5,1.11929 2.5,2.5c0,1.38071 -1.11929,2.5 -2.5,2.5c-1.38071,0 -2.5,-1.11929 -2.5,-2.5z" fill="#f0ff00"/><path d="M164.47515,151.96344c1.50457,0.37829 7.02823,1.93937 8.60649,3.21526c1.09365,0.88412 1.75399,2.19887 2.61446,3.31122c2.93623,3.79574 8.41335,8.62018 8.0863,13.96576c-0.09882,1.6151 -1.27979,3.03083 -2.34028,4.25299c-3.34384,3.8536 -7.80331,5.88685 -12.58637,6.88066c-9.94708,1.60898 -22.23186,3.91753 -32.03795,0.36635c-2.09327,-0.75806 -4.05751,-2.29948 -5.66632,-4.26559c-0.35607,0.34685 -0.72678,0.67635 -1.12783,0.97017c-3.51665,2.57644 -4.8111,2.01423 -8.83423,3.6447c-7.47931,3.03118 -14.99011,5.88491 -23.26251,5.40976c-3.91412,-0.22482 -5.25285,0.1453 -8.53797,-1.39394c-3.42261,-1.60367 -6.36657,-4.15314 -9.10445,-6.75891c-0.39149,-1.15044 -0.98215,-2.26449 -1.43278,-3.40413c-1.77882,0.87076 -3.57809,1.66828 -5.26369,2.48623c-1.59675,0.77484 -3.11143,1.75225 -4.79426,2.31623c-6.15368,2.06229 -13.3373,2.32552 -19.75482,2.2959c-4.83772,-0.11336 -13.92911,0.42403 -17.6288,-3.54519c-0.05579,-0.05985 -0.11077,-0.11969 -0.16494,-0.17948c-1.10421,0.66411 -1.90853,1.14148 -1.98327,1.1704c-4.19464,1.62316 -10.19361,1.46067 -14.61106,1.72453c-3.5198,-0.12403 -9.46202,0.02369 -12.41132,-2.44419c-0.43258,-0.36197 -0.80645,-0.8012 -1.13119,-1.29434c-0.3827,0.15897 -0.75961,0.31722 -1.12883,0.47571c-10.96481,2.12939 -21.86624,1.33211 -30.95335,-5.67713c-1.54966,-1.19532 -3.50629,-2.0868 -4.49732,-3.77444c-1.09207,-1.85969 0.2751,-7.79262 1.14052,-9.18572c0.82759,-1.3322 2.49445,-1.92351 3.56861,-3.06624c0.79227,-0.84284 1.12519,-2.07373 1.98761,-2.84463c0.30853,-0.27579 8.07614,-5.04154 8.33407,-5.20052c4.25641,-2.62354 8.51283,-5.24708 12.76924,-7.87062c0,0 2.1282,-1.31177 3.43998,0.81644c1.31177,2.12821 -0.81644,3.43998 -0.81644,3.43998c-1.56936,0.96732 -3.13874,1.93463 -4.7081,2.90195c6.13677,-1.71203 10.90307,-2.0384 17.24726,0.87597c0.14369,0.066 0.28897,0.12998 0.4354,0.1925c4.37231,-3.10525 8.57312,-5.75251 13.9606,-7.11702c4.59697,-1.1643 9.91962,0.29833 14.61617,0.09665c0,0 2.49802,-0.09964 2.59765,2.39838c0.09963,2.49802 -2.39838,2.59765 -2.39838,2.59765c-2.57782,0.09588 -5.51978,-0.38842 -8.36027,-0.55692c1.07003,0.44969 1.95545,1.31055 3.00846,1.81798c2.59331,1.24965 5.86327,1.47151 8.18594,3.23893c0.10034,0.07636 0.45653,0.6601 0.90937,1.43399c0.24094,-0.19869 0.48579,-0.39103 0.73491,-0.57614c8.27146,-6.14625 21.2171,-3.95704 30.8496,-4.75868c0,0 2.49141,-0.20703 2.69845,2.28438c0.0824,0.99153 -0.2626,1.62124 -0.70787,2.02008c2.04527,1.32077 3.5757,3.45712 5.76864,4.53308c1.34217,0.65853 3.23855,1.32233 5.04039,2.20067c1.32156,-1.61346 2.83864,-3.13213 4.59462,-4.70697c1.42154,-1.27491 2.6083,-2.88969 4.28712,-3.79952c2.64705,-1.43456 5.95329,-0.91413 8.90949,-1.48485c11.17737,-2.15788 23.15486,-1.56938 34.50258,-1.1974c0,0 2.49862,0.08306 2.41556,2.58168c-0.08306,2.49862 -2.58168,2.41556 -2.58168,2.41556c-1.92948,-0.06507 -3.88025,-0.13782 -5.84386,-0.20207c0.90074,0.41243 2.34584,1.16977 3.79096,1.95577c8.67998,-5.50957 19.24908,-7.57775 29.56969,-4.98288z" data-paper-data="{&quot;index&quot;:null}" fill="#f0ff00"/><path d="M55.67432,148.97178c1.50457,0.37829 7.02823,1.93937 8.60649,3.21526c1.09365,0.88412 1.75399,2.19887 2.61446,3.31122c2.93623,3.79574 8.41335,8.62018 8.0863,13.96576c-0.09882,1.6151 -1.27979,3.03083 -2.34028,4.25299c-3.34384,3.8536 -7.80331,5.88685 -12.58637,6.88066c-9.94708,1.60898 -22.23186,3.91753 -32.03795,0.36635c-2.09327,-0.75806 -4.05751,-2.29948 -5.66632,-4.26559c-0.35607,0.34685 -0.72678,0.67635 -1.12783,0.97017c-3.51665,2.57644 -4.8111,2.01423 -8.83423,3.6447c-7.47931,3.03118 -14.99011,5.88491 -23.26251,5.40976c-3.91412,-0.22482 -5.25285,0.1453 -8.53797,-1.39394c-3.42261,-1.60367 -6.36657,-4.15314 -9.10445,-6.75891c-0.39149,-1.15044 -0.98215,-2.26449 -1.43278,-3.40413c-1.77882,0.87076 -3.57809,1.66828 -5.26369,2.48623c-1.59675,0.77484 -3.11143,1.75225 -4.79426,2.31623c-6.15368,2.06229 -13.3373,2.32552 -19.75482,2.2959c-4.83772,-0.11336 -13.92911,0.42403 -17.6288,-3.54519c-0.05579,-0.05985 -0.11077,-0.11969 -0.16494,-0.17948c-1.10421,0.66411 -1.90853,1.14148 -1.98327,1.1704c-4.19464,1.62316 -10.19361,1.46067 -14.61106,1.72453c-3.5198,-0.12403 -9.46202,0.02369 -12.41132,-2.44419c-0.43258,-0.36197 -0.80645,-0.8012 -1.13119,-1.29434c-0.3827,0.15897 -0.75961,0.31722 -1.12883,0.47571c-10.96481,2.12939 -21.86624,1.33211 -30.95335,-5.67713c-1.54966,-1.19532 -3.50629,-2.0868 -4.49732,-3.77444c-1.09207,-1.85969 0.2751,-7.79262 1.14052,-9.18572c0.82759,-1.3322 2.49445,-1.92351 3.56861,-3.06624c0.79227,-0.84284 1.12519,-2.07373 1.98761,-2.84463c0.30853,-0.27579 8.07614,-5.04154 8.33407,-5.20052c4.25641,-2.62354 8.51283,-5.24708 12.76924,-7.87062c0,0 2.1282,-1.31177 3.43998,0.81644c1.31177,2.12821 -0.81644,3.43998 -0.81644,3.43998c-1.56936,0.96732 -3.13874,1.93463 -4.7081,2.90195c6.13677,-1.71203 10.90307,-2.0384 17.24726,0.87597c0.14369,0.066 0.28897,0.12998 0.4354,0.1925c4.37231,-3.10525 8.57312,-5.75251 13.9606,-7.11702c4.59697,-1.1643 9.91962,0.29833 14.61617,0.09665c0,0 2.49802,-0.09964 2.59765,2.39838c0.09963,2.49802 -2.39838,2.59765 -2.39838,2.59765c-2.57782,0.09588 -5.51978,-0.38842 -8.36027,-0.55692c1.07003,0.44969 1.95545,1.31055 3.00846,1.81798c2.59331,1.24965 5.86327,1.47151 8.18594,3.23893c0.10034,0.07636 0.45653,0.6601 0.90937,1.43399c0.24094,-0.19869 0.48579,-0.39103 0.73491,-0.57614c8.27146,-6.14625 21.2171,-3.95704 30.8496,-4.75868c0,0 2.49141,-0.20703 2.69845,2.28438c0.0824,0.99153 -0.2626,1.62124 -0.70787,2.02008c2.04527,1.32077 3.5757,3.45712 5.76864,4.53308c1.34217,0.65853 3.23855,1.32233 5.04039,2.20067c1.32156,-1.61346 2.83864,-3.13213 4.59462,-4.70697c1.42154,-1.27491 2.6083,-2.88969 4.28712,-3.79952c2.64705,-1.43456 5.95329,-0.91413 8.90949,-1.48485c11.17737,-2.15788 23.15486,-1.56938 34.50258,-1.1974c0,0 2.49862,0.08306 2.41556,2.58168c-0.08306,2.49862 -2.58168,2.41556 -2.58168,2.41556c-1.92948,-0.06507 -3.88025,-0.13782 -5.84386,-0.20207c0.90074,0.41243 2.34584,1.16977 3.79096,1.95577c8.67998,-5.50957 19.24908,-7.57775 29.56969,-4.98288z" data-paper-data="{&quot;index&quot;:null}" fill="#f0ff00"/></g></g></svg>