<svg version="1.1" xmlns="http://www.w3.org/2000/svg" xmlns:xlink="http://www.w3.org/1999/xlink" width="148.95166" height="67.6" viewBox="0,0,148.95166,67.6"><g transform="translate(-138.68723,-145.63124)"><g data-paper-data="{&quot;isPaintingLayer&quot;:true}" fill-rule="nonzero" stroke="none" stroke-width="0.5" stroke-linecap="butt" stroke-linejoin="miter" stroke-miterlimit="10" stroke-dasharray="" stroke-dashoffset="0" style="mix-blend-mode: normal"><path d="M219.10818,169.27256l0.07102,0.01107l0.11184,-0.02796h0.37719l0.17411,0.04353l0.17851,-0.01853l0.45103,0.06426l0.00129,-0.00072l0.00566,0.00171l0.29639,0.04223l0.45792,0.18636l0.47314,0.14338l0.2569,0.15372l0.00547,0.00223l0.00055,0.00137l0.27591,0.16509l0.49978,0.49858c2.22269,-0.23854 5.66512,0.08898 6.42837,-0.00473c9.40108,-1.15421 18.77991,-1.13937 28.11263,0.58729c0.62486,0.1156 1.65528,0.22567 2.77168,0.41511c0.83433,-0.13292 1.58007,0.21238 1.58007,0.21238c0.15008,0.06969 0.33968,0.15974 0.5568,0.26273c0.80699,0.23787 1.55138,0.54765 2.10614,0.96309c0.72337,0.30908 1.41515,0.57094 1.8643,0.65498c4.56133,0.85343 9.62331,-0.43093 14.09968,0.6466c1.61389,0.38849 4.20957,0.129 4.67233,1.72318c1.20187,4.1404 -3.40848,6.04478 -5.66654,7.62735c-2.98147,2.08958 -5.69547,5.63653 -9.06867,6.99275c-3.89672,1.56671 -9.08457,1.11114 -13.22598,1.71131c-7.09727,0.01609 -13.94067,0.32893 -20.9667,-0.52346c-5.49402,-0.66653 -11.07,-0.01874 -16.56217,-0.97201c-1.1118,-0.19298 -2.20728,-0.46725 -3.30006,-0.75698c-0.20989,0.37865 -0.46335,0.72332 -0.79304,1.00855c-2.15596,1.86522 -7.01063,0.86517 -9.64014,1.29094c-1.23003,0.19917 -2.47431,1.00503 -3.67636,0.67684c-5.03505,-1.37468 -6.35448,-8.1912 -6.86705,-12.45812c-0.47396,-3.94549 -0.97496,-8.53637 3.37093,-10.75871c1.30086,-0.66521 5.20784,0.02269 6.64567,0.04623c1.99179,0.03262 3.9638,-0.20723 5.93822,-0.45355c0.00376,0.01454 0.00776,0.02921 0.01199,0.04401c0.2877,1.00698 1.17803,0.92925 1.45925,0.87754c0.22915,0.26291 0.5665,0.42905 0.94265,0.42905c0.58089,0 1.06923,-0.39623 1.2095,-0.93317l0.01714,-0.06002c1.20344,1.04986 2.5396,-1.14062 3.28286,-2.52286c0.85909,0.53415 1.03428,1.47236 1.05979,2.00736z" data-paper-data="{&quot;index&quot;:null}" fill="#f0ff00"/><path d="M175.23889,203.13125c0,-1.24926 0.62427,-1.87426 1.2489,-2.18695c0.95309,-1.18746 1.9095,-2.36934 2.86631,-3.54854c-0.64888,-0.92048 -1.22676,-1.9523 -1.72344,-3.10428c-0.55714,-1.29223 -0.80829,-2.29079 -0.99511,-3.36595c-9.25428,0.19703 -18.47494,0.71821 -27.70472,1.7057c-1.75992,-0.20565 -5.97248,-0.36132 -7.45531,-1.83365c-1.13227,-1.12426 -1.75634,-2.72702 -2.16436,-4.26959c-0.95872,-3.62456 -1.24164,-12.55144 2.36595,-15.02486c3.67718,-2.52113 8.28125,-0.70108 12.13501,-0.25691c3.06389,0.35313 6.13404,0.08443 9.20479,0.18624c3.79419,0.12579 7.47075,1.10977 11.26768,0.99937c0.99495,-0.02893 1.98718,-0.08047 2.97785,-0.14396c-0.0539,-0.52832 0.04625,-0.94323 0.04625,-0.94323c0.72484,-2.998 1.4207,-6.53506 2.88513,-9.55484c-1.81401,-1.47426 -3.69951,-2.87481 -5.45538,-4.33801c0,0 -1.92055,-1.60046 -0.32009,-3.52102c1.60046,-1.92056 3.52102,-0.32009 3.52102,-0.32009c1.67441,1.39536 3.44377,2.73788 5.16866,4.13153c0.19337,-0.17604 0.39405,-0.34551 0.60246,-0.50788c2.22646,-1.73466 4.96232,-2.90152 7.83881,-3.45478c-0.06753,-1.88237 -0.10978,-3.76507 -0.11039,-5.64832c0,0 0,-2.5 2.5,-2.5c2.5,0 2.5,2.5 2.5,2.5c-0.00061,1.77027 0.03469,3.53969 0.0928,5.30854c3.33858,0.18357 6.58633,1.2051 9.19039,3.13326c0.54281,-1.5322 1.09283,-3.06199 1.69562,-4.57028c0,0 0.92848,-2.32119 3.24967,-1.39272c2.32119,0.92847 1.39271,3.24967 1.39271,3.24967c-0.92382,2.30749 -1.73341,4.65136 -2.57441,6.97877c0.38723,0.69325 0.723,1.43707 1.00047,2.23229c0.61187,1.75358 0.78667,3.5585 0.78141,5.37253c-0.16715,0.23736 -0.26194,0.57152 -0.13057,1.03133c0.02794,0.09777 0.06155,0.1853 0.09973,0.26364c-0.04457,1.06015 -0.12968,2.11998 -0.20418,3.17108l-0.32194,1.21245c0,0 -0.79056,2.37171 -3.16227,1.58114c-2.37171,-0.79057 -1.58114,-3.16227 -1.58114,-3.16227l0.07806,0.01245c0.09139,-1.26904 0.23798,-2.61425 0.25271,-3.95139c-0.43455,0.87899 -0.89979,1.74606 -1.40474,2.59794c-1.17361,1.97991 -2.39777,3.91515 -3.6628,5.81517c-0.00307,0.18265 -0.02059,0.29654 -0.02059,0.29654c-0.13492,0.87464 -0.28272,1.69586 -0.41542,2.49838c3.83366,3.48642 8.6549,5.905 12.29922,9.54076c3.21911,3.21156 5.76788,6.61608 9.24966,9.66344l1.95735,1.5651c0,0 1.95217,1.56174 0.39043,3.51391c-1.56174,1.95217 -3.51391,0.39043 -3.51391,0.39043l-2.04265,-1.6349c-3.00083,-2.62506 -5.36982,-5.51389 -8.00039,-8.32729c-0.76601,1.63285 -1.31416,3.40132 -2.45438,4.78581c-2.55137,3.09793 -6.50741,3.76839 -10.18555,4.29883c-0.2066,0.0298 -0.41308,0.05784 -0.61937,0.08408c-0.15562,1.58177 -0.31748,3.1864 -0.44328,4.83304l0.00736,2.20826c0,0 0,2.5 -2.5,2.5c-2.5,0 -2.5,-2.5 -2.5,-2.5l0.00737,-2.59174c0.11044,-1.42658 0.25582,-2.82115 0.40141,-4.19721c-3.67249,-0.12914 -7.11244,-1.01757 -9.9403,-2.99243c-1.00754,1.24344 -2.01409,2.49006 -3.0163,3.74312l-2.15217,0.93826c0,0 -2.5,0 -2.5,-2.5zM200.58458,168.66282c1.3399,-2.25263 2.38233,-4.63154 3.31479,-7.05814c-1.80495,-1.93059 -4.41379,-2.95036 -7.15493,-3.19287c0.22964,4.54152 0.52901,9.08131 0.67661,13.62462l1.08459,-0.00328c0.70851,-1.10962 1.40211,-2.23245 2.07895,-3.37034zM203.74833,191.70296c-1.77284,-0.61406 -3.67211,-0.92256 -5.62682,-1.05877c0.34577,2.70307 0.33944,5.32005 0.18429,7.94287c2.16567,-0.2766 5.10795,-0.56487 6.49226,-2.4316c1.06461,-1.43562 1.49101,-3.25188 2.34611,-4.82134l0.2092,-0.41917c-0.1898,-0.15393 -0.38133,-0.30614 -0.57439,-0.45687c-0.89287,1.95748 -3.03064,1.24489 -3.03064,1.24489zM193.31753,198.97782c0.19404,-2.76667 0.21193,-5.52462 -0.24444,-8.38977c-0.62466,0.0188 -1.24886,0.04341 -1.87043,0.06974c-1.69856,2.15118 -3.42152,4.28521 -5.15184,6.41862c2.07175,1.35612 4.59576,1.86959 7.2667,1.90141zM185.05648,166.3764c-0.31669,-0.37046 -0.64535,-0.73166 -0.98407,-1.0849c-0.85365,2.18371 -1.31189,4.63625 -1.76216,6.62108c2.07106,-0.15356 4.14378,-0.28 6.22865,-0.28133c0.08149,0.00004 0.16296,0.00024 0.2444,0.0006c-1.12888,-1.82276 -2.31895,-3.60851 -3.72681,-5.25545zM188.82131,163.0861c1.29709,1.5134 2.40679,3.15519 3.45442,4.83734c-0.14811,-3.04339 -0.3372,-6.08607 -0.49815,-9.12904c-1.79842,0.43899 -3.47136,1.1974 -4.81027,2.23375c-0.01697,0.01314 -0.03387,0.02635 -0.05071,0.03966c0.66529,0.6469 1.30369,1.31705 1.9047,2.01829zM181.72727,190.84899c0.12289,0.47791 0.28585,0.97143 0.51986,1.52203c0.13691,0.32211 0.28259,0.6299 0.4366,0.92389c0.66468,-0.82014 1.32792,-1.64062 1.98873,-2.46243c-0.98223,0.00227 -1.96395,0.00772 -2.9452,0.01651zM200.43644,185.92469c0.0126,0.0015 0.02519,0.00299 0.03779,0.0045c-0.01263,-0.00925 -0.02525,-0.0185 -0.03788,-0.02776z" fill="#f0ff00"/><path d="M254.23889,174.73125c0,-2.40996 2.32317,-2.49675 2.49051,-2.49988c0.77979,-0.13235 1.60944,-0.28604 2.4709,-0.43846c-9.93303,-0.3602 -20.25796,1.92531 -30.04634,1.2315c-2.90732,-0.22683 -5.72742,-0.74891 -8.6057,-1.20043l-2.40937,0.00727c0,0 -2.01456,0 -2.42683,-1.80842c1.04647,-0.30266 2.05294,-2.21062 2.56548,-3.19121l2.65198,0.00692c2.87425,0.43483 5.69429,0.98001 8.5943,1.19957c12.3928,0.89246 25.43214,-2.81062 37.73085,-0.35306c5.16442,1.03197 11.41077,3.97422 15.82641,6.73707c0,0 2.10916,1.34219 0.76697,3.45134c-1.34219,2.10915 -3.45134,0.76696 -3.45134,0.76696c-1.00158,-0.65135 -2.13599,-1.31377 -3.34665,-1.95329l-3.27492,0.86183l-0.01851,-0.07032c-0.18534,0.05938 -0.37392,0.11047 -0.56619,0.15211c-4.07092,0.88153 -4.88,-1.84698 -8.29683,-1.79988c-2.55525,0.03522 -5.023,0.94623 -7.54371,1.36639l-0.611,0.03402c0,0 -2.5,0 -2.5,-2.5z" fill="#f0ff00"/><path d="M216.64513,192.782c-2.27477,-0.46944 -4.47669,-1.27057 -6.63471,-2.12956c0,0 -2.32119,-0.92848 -1.39271,-3.24967c0.92847,-2.32119 3.24967,-1.39272 3.24967,-1.39272c1.58666,0.63811 3.35259,1.01677 5.11162,1.42477c-0.6955,-1.22813 -1.44533,-2.49249 -1.55248,-2.7534c-1.4435,-3.51476 -2.22855,-7.80512 -2.66283,-11.83237c-0.58184,-0.06081 -1.21517,-0.36043 -1.73393,-1.17562c-0.77536,-1.21843 -0.39894,-2.18091 0.05728,-2.77654c-0.02401,0.16583 -0.013,0.35736 0.04997,0.57775c0.2877,1.00698 1.17803,0.92925 1.45925,0.87754c0.22915,0.26291 0.5665,0.42905 0.94265,0.42905c0.58089,0 1.06923,-0.39623 1.2095,-0.93317l0.01714,-0.06002c1.46451,1.2776 3.12556,-2.24348 3.67545,-3.26699c1.37518,-2.55961 3.24855,-5.366 4.29668,-8.08412c1.70879,-0.2698 3.5058,0.1547 5.25043,0.16716c3.36853,0.02407 6.7627,0.22679 10.1242,0.22728c3.56406,0.00052 7.01493,0.21859 10.51361,0.40437c0.73898,-0.80452 1.91298,-0.80452 1.91298,-0.80452l2.76557,0.00549c2.93805,0.38664 6.27374,0.50401 9.08045,1.54201c6.62894,2.45157 12.4706,7.71562 18.42005,11.39679c2.29238,1.4184 5.52059,1.9378 5.43116,5.87356c-0.06322,2.78214 -3.42528,4.22445 -5.24314,5.51578c-4.48275,3.18437 -7.10689,8.32864 -11.19839,11.83952c-1.51854,1.30304 -3.38451,2.13556 -5.07282,3.20956c-7.5668,5.15935 -18.17098,2.61729 -26.98287,2.61729c-2.08858,0 -5.5608,0.45739 -8.14746,0.35315c-2.7307,-3.07099 -6.15291,-5.99642 -9.69352,-7.77118c0,0 -0.12362,-0.06181 -0.30919,-0.10322c-0.01135,-0.68055 -0.56657,-1.22875 -1.24983,-1.22875c-0.66763,0 -1.21301,0.52342 -1.24819,1.18228c-0.14134,-0.02263 -0.28949,-0.04931 -0.44557,-0.08152z" fill="#f0ff00"/><path d="M212.81677,167.54155c0.00887,-0.01524 0.01796,-0.03045 0.02725,-0.0456c0.00976,0.0174 0.01966,0.0346 0.02968,0.05158l0.00462,0.03031c-0.11833,0.06476 -0.24087,0.12395 -0.3679,0.17707c0.10335,-0.07061 0.20544,-0.14172 0.30635,-0.21336z" fill="#f0ff00"/><path d="M222.17113,197.49902l-0.43233,-0.47026c0.50374,0.35311 1.00093,0.7267 1.48916,1.11665c-0.63615,-0.22571 -1.05684,-0.64639 -1.05684,-0.64639z" fill="#f0ff00"/><path d="M258.39516,200.61749c-1.28624,-2.14373 0.85749,-3.42997 0.85749,-3.42997l0.7245,-0.40844c4.18922,-3.34533 9.13969,-5.97726 13.04604,-9.66617c3.58532,-3.38574 6.21154,-7.80488 9.73013,-11.33159c0.31855,-1.01431 1.26614,-1.75006 2.38557,-1.75006c1.38071,0 2.5,1.11929 2.5,2.5c0,0.6692 -0.26293,1.27698 -0.69113,1.72569c-0.22692,0.62789 -0.64111,1.04208 -0.64111,1.04208c-3.57077,3.56854 -6.22022,8.00109 -9.85207,11.45058c-4.0013,3.80039 -9.06076,6.49251 -13.35396,9.93383l-1.2755,0.79156c0,0 -2.14373,1.28624 -3.42997,-0.85749z" fill="#f0ff00"/></g></g></svg>