<svg version="1.1" xmlns="http://www.w3.org/2000/svg" xmlns:xlink="http://www.w3.org/1999/xlink" width="162.63445" height="50.93447" viewBox="0,0,162.63445,50.93447"><g transform="translate(-187.01879,-155.53965)"><g data-paper-data="{&quot;isPaintingLayer&quot;:true}" fill="#f0ff00" fill-rule="nonzero" stroke="none" stroke-width="0.5" stroke-linecap="butt" stroke-linejoin="miter" stroke-miterlimit="10" stroke-dasharray="" stroke-dashoffset="0" style="mix-blend-mode: normal"><path d=""/><path d=""/><path d=""/><path d=""/><path d=""/><path d="M197.01366,166.93177c0.82729,0 1.60765,0.20092 2.29495,0.55662l0.50696,-0.12674h4.41843l0.42132,0.10533l0.43312,-0.03178l2.47861,0.42989l0.16964,0.07509l0.18552,-0.00012l0.53661,0.13379l0.6177,0.06844l2.65919,0.27434l3.75458,-0.28803l0.05874,0.00999l0.05695,-0.01752l6.03491,-0.32242l0.20315,0.03941l0.20207,-0.04461l1.81633,0.05032l0.05976,-0.95355l0.10398,-0.32733l-0.01616,-0.34307l0.10777,-0.53737l0.13573,-0.28615l0.02455,-0.31576l0.31373,-0.93862l0.8529,-2.65806l0.01638,-0.02639l0.00241,-0.03097l0.33217,-0.9938l0.04643,-0.2315l0.85447,-1.80133l0.02961,-0.25579l0.14328,-0.10867l0.07707,-0.16248l0.24433,-0.0813l1.58851,-1.20481l0.75435,-0.32242l0.51534,-0.0826l0.4718,-0.22317l0.53884,-0.10747l0.24803,0.01194l0.23373,-0.08383l2.15532,-0.21495l0.25054,0.03673l0.24565,-0.06141h2.80191l0.05405,0.01351l0.05433,-0.01234l4.90306,0.10631h2.63995l0.14546,0.03637l0.14734,-0.02778l1.35441,0.07945l1.14225,-0.15189l0.81646,0.09247l0.82073,-0.03949l0.53882,0.10748l0.00332,0.00157l0.0017,-0.00057l0.00344,0.003l0.23054,0.10906l0.14556,0.01649l0.06245,0.08191l1.88242,0.89052l0.43599,1.30578l1.03762,0.90469l0.12078,2.56473l0.00145,0.00433l-0.00118,0.00135l0.00017,0.00367l-0.157,0.78287l-0.21889,2.7651l0.40364,0.0805l1.89692,0.18017l4.19858,0.20937l0.14815,0.04499l0.15343,-0.02078l0.63623,0.07049l4.19057,-0.09949l0.40793,0.09175l0.41588,-0.04319l0.44488,0.06337l6.15339,0.10227l0.11789,0.03156l0.12006,-0.02194l3.1804,0.20463h2.10242l0.22368,0.05592l0.22781,-0.03549l2.37083,0.21496l0.25587,0.08919l0.27066,-0.01303l1.40422,0.28008l1.58076,0.17514l5.95443,0.31254l5.85262,0.2048l4.81893,-0.30675l0.07663,0.01406l0.07491,-0.0214l2.85342,-0.09484l1.01598,-0.18998l0.64655,-0.21493l0.62562,-0.04761l0.59634,-0.19505l1.50874,-0.10749l0.17901,0.03144l0.17632,-0.04408h2.15532l0.7061,0.17653l0.72707,0.03328l0.61805,0.18491l0.35283,0.03519h0.9367l0.2724,0.0681l0.27824,-0.03769l1.93976,0.21493l0.13048,0.04842l0.13872,-0.01116l0.88607,0.14728h2.92803l0.3912,0.0978l0.22723,-0.09862l0.91692,0.38465l0.96464,0.24116l0.1229,0.21507l0.37185,0.15599l0.86214,0.64484l0.47513,0.58321l0.32802,0.10914l0.31101,0.65563l0.464,0.37597l3.95199,2.01869l0.18173,0.1585l0.22876,0.07629l5.06502,3.22418l0.22117,0.23319l0.28962,0.13934l3.5927,2.98575l2.69833,1.63383l0.23064,0.2325l0.29789,0.13605l1.86847,1.4907l0.976,0.56778l0.68038,0.66222l0.74805,0.5847l0.5287,0.67789l0.24487,0.14648l0.43106,0.42991l0.51171,0.85027l0.33249,0.19l0.15501,0.62006l0.32957,0.54762l-0.10027,0.36959l0.24069,0.96274v0.53735l-0.32973,1.31892l0.07278,0.38229l-0.25951,0.36462l-0.10854,0.43417l-0.33788,0.19308l-0.78832,1.10762l-0.75438,0.64484l-0.71033,0.35396l-0.6391,0.47053l-1.832,0.75233l-0.19019,0.02771l-0.1629,0.10199l-4.8023,1.5617l-2.00399,0.7994l-0.23304,0.03155l-0.20263,0.11935l-2.46383,0.72804l-3.78896,1.93777l-0.27188,0.06302l-0.22907,0.15944l-2.0304,0.77137l-2.25472,1.12429l-1.61812,0.90772l-0.03232,0.00882l-0.02467,0.02267l-1.18542,0.64484l-0.32427,0.08392l-0.27431,0.19223l-1.40096,0.53737l-1.17807,0.14359l-0.32757,0.2189l-0.52185,-0.11537l-0.53052,0.06466l-0.30501,-0.24938l-1.1588,-0.25618l-0.09696,-0.04835l-0.37024,-0.08205l-0.06029,-0.0301l-0.06739,0.00004l-1.07532,-0.2681l-3.22665,-0.50278l-0.24282,-0.10254l-0.26356,-0.00346l-3.16084,-0.83442l-5.83842,-0.29606l-0.17469,-0.0532l-0.18123,0.02238l-7.00481,-0.85979l-0.00454,-0.00175l-0.00483,0.00059l-5.17276,-0.64484l-0.17359,-0.06713l-0.18591,0.00895l-2.89066,-0.57656l-5.11187,-0.29411h-6.32222l-0.04876,-0.01219l-0.04899,0.01123l-5.49608,-0.10747l-0.0567,-0.01536l-0.05755,0.01182l-4.95908,-0.21045h-4.63565l-0.04876,-0.01219l-0.04899,0.01123l-5.49608,-0.10747l-0.36636,-0.09924l-0.37848,0.02869l-0.83344,-0.14249l-0.19709,0.88237l-0.08116,1.02007l-0.1794,0.14648l-0.07812,0.34973l-0.53882,1.07472l-1.67917,1.95474l-0.3902,0.02125l-0.2175,0.32466l-2.53809,0.44579l-1.50873,-0.10747l-0.17099,-0.05592l-0.17894,0.01858l-0.75436,-0.10747l-0.67222,-0.27356l-0.71318,-0.13449l-1.05102,-0.48377l-1.13825,-0.32434l-0.25612,-0.14752l-0.2923,-0.04383l-0.88646,-0.36835l-0.97533,-0.21616h-0.30921l-2.06101,0.09344l-0.66675,0.08311l-0.3128,-0.03802l-0.30569,0.07642h-0.64661l-2.02386,-0.50596l-0.22396,0.01573l-0.10919,-0.09901l-0.143,-0.03575l-0.11139,-0.19493l-1.54538,-1.40135l-0.23865,-0.357l-0.04948,-0.02029l-0.05145,-0.1307l-0.09148,-0.13685l-0.38412,-1.0713l-0.41688,-1.05898l-0.02135,-0.16322l-0.04741,-0.13222l0.02386,-0.04786l-0.2784,-2.12857l0.03787,-0.32806l-0.08009,-0.32038v-1.61209l0.03232,-0.12929l-0.02555,-0.1308l0.10668,-2.04803h-3.08814l-0.59565,-0.14891l-0.61398,0.00038l-0.61952,-0.15447l-4.36876,-0.63537l-2.13352,0.1702l-0.20045,-0.03346l-0.19716,0.04929h-0.51744l-1.65407,0.15711l-0.49845,0.12428l-0.00008,0l-0.00007,0.00004l-0.86213,0.21493l-0.26172,-0.00017l-0.24241,0.09866l-0.75436,0.10749l-0.13026,-0.01352l-0.12366,0.0431l-2.26677,0.20549l-2.76854,0.36815l-0.40425,0.11518l-0.4909,0.016l-0.46499,0.15818l-1.29321,0.10749l-0.28403,-0.04643l-0.28119,0.06134l-3.48077,-0.10521h-1.10988l-0.25057,-0.06264l-0.25562,0.03695l-4.8418,-0.4927l-0.03367,0.01894l-0.11112,-0.03367l-0.29395,-0.02991l-1.02165,-0.36876l-1.03948,-0.315l-0.25354,-0.15171l-0.10921,-0.03942l-0.01136,-0.02559l-0.05752,0.00129l-0.96577,-0.9635l-0.9658,-0.96347l0.00139,-0.06902l-0.21742,-0.36141l-0.39833,-1.30329l-0.2591,-0.29006l0.03456,-0.44459l-0.13034,-0.42646l0.18989,-0.33943l0.10563,-1.35871l0.03111,-0.09307l0.05495,-0.60283l0.22215,-0.63635l0.07713,-0.66959l0.64659,-1.71956l0.07823,-0.11321l0.02307,-0.13566l1.44051,-3.28363l1.30938,-3.63761l0.10967,-0.78748l0.24356,-0.6039l0.38779,-1.60218l0.10073,-0.19233l0.01683,-0.21646l0.17896,-0.53543c0.25651,-0.83167 0.72417,-1.57073 1.34038,-2.15456l0.08146,-0.12778l0.07588,-0.01511c0.87809,-0.76421 2.02549,-1.22694 3.28097,-1.22694zM234.64551,165.53965l-0.17581,0.54791l0.23212,-0.16916l0.18057,0.03229l0.20343,-0.11717l0.31126,-0.08869l0.07356,-0.20517zM203.80362,177.36164l-1.48033,0l1.86235,0.34554l0.12142,-0.25823z"/></g></g></svg>