<svg version="1.1" xmlns="http://www.w3.org/2000/svg" xmlns:xlink="http://www.w3.org/1999/xlink" width="191.07764" height="76.70105" viewBox="0,0,191.07764,76.70105"><g transform="translate(-144.46118,-141.64948)"><g data-paper-data="{&quot;isPaintingLayer&quot;:true}" fill="#f0ff00" fill-rule="nonzero" stroke="none" stroke-width="0.5" stroke-linecap="butt" stroke-linejoin="miter" stroke-miterlimit="10" stroke-dasharray="" stroke-dashoffset="0" style="mix-blend-mode: normal"><path d=""/><path d=""/><path d=""/><path d=""/><path d=""/><path d="M237.25869,141.68278c4.32878,0.18639 8.56875,0.99793 12.8721,1.40578c5.38556,0.51042 10.87156,0.95175 16.34112,1.27934l2.17931,1.51675l0.03779,-0.0543l0.14771,0.17008c5.71704,2.48602 11.29714,4.89319 16.00065,9.10279c1.47264,1.318 2.53357,3.07168 4.08143,4.30046c3.35696,2.66493 7.3029,4.67463 10.58939,7.41742c2.57924,2.15254 4.20396,4.70103 6.58065,6.91228c1.88982,1.75826 4.23172,2.97725 6.15663,4.69702c2.95781,2.6426 5.56702,5.59568 8.4013,8.34912c0.01283,0.0306 0.02577,0.06116 0.03881,0.09169c-1.20348,0.88872 -2.36185,2.07097 -3.29891,2.74079c-6.58528,4.70726 -10.68628,11.53952 -16.34861,17.18622c-2.71884,3.17198 -5.19174,6.39603 -7.86229,9.60839l-1.8309,1.8309c-6.95833,0.16258 -13.92541,0.10521 -20.89261,0.09454c-4.25319,-0.52597 -8.60309,-1.06834 -12.86586,-1.4602c-2.90722,-0.26725 -5.8928,0.28892 -8.80008,-0.0056c-3.14934,-0.31904 -6.11734,-1.72617 -9.28245,-2.03555c-0.64968,-0.0635 -1.28122,-0.11577 -1.90048,-0.16591c-0.16325,-0.29536 -0.31649,-0.5837 -0.43386,-0.85835c-0.35402,-0.82841 -2.45068,-3.2591 -3.07534,-4.00845c-2.6643,-3.19616 -5.77536,-6.11338 -9.15051,-8.53836c0,0 -1.28898,-0.9207 -2.45603,-0.09704c-1.08929,-0.25999 -2.16987,-0.40265 -3.17831,-0.11389c0.20378,0.27306 0.40007,0.55093 0.5869,0.83467c-1.393,0.38966 -2.85076,0.8652 -4.3496,1.36537c-0.01502,-0.01916 -0.03009,-0.03828 -0.04522,-0.05738c-0.06026,0.04404 -0.12039,0.0883 -0.18041,0.13275c-5.53698,1.85125 -11.61553,3.99518 -17.05195,3.36941c-5.76151,-0.66319 -12.1739,-3.17724 -17.27952,-5.87683c-2.9395,-1.55426 -5.52419,-3.52303 -8.60777,-4.84037c-2.73628,-0.36487 -5.39096,-0.6572 -8.15306,-0.66027h-1.45698c0,0 -0.85274,0 -1.49289,0.53266c-1.94494,-0.14022 -3.89117,-0.31927 -5.84094,-0.53206c-0.69865,-0.07625 -8.28888,-0.74168 -8.57445,-0.89893c-2.70414,-1.48898 -2.20251,-4.01538 -2.26848,-6.35158c-0.10835,-3.83754 -0.19711,-7.69136 -0.07447,-11.52831c0,0 0.07066,-2.18432 2.25498,-2.11366c0.47291,0.0153 0.84012,0.12967 1.12524,0.2995h2.46978c2.90925,-0.09707 5.84162,-0.21774 8.75093,-0.00327l0.00854,0.05288l-0.23475,0.2024c0,0 -1.54536,1.54536 0,3.09072c1.54536,1.54536 3.09072,0 3.09072,0l0.0148,-0.17341c1.75973,-0.88518 3.48609,-1.58795 4.92085,-3.01408c3.83355,-3.81048 4.91726,-9.36712 8.44981,-13.40355c4.42758,-3.67028 9.64968,-6.37206 15.51011,-6.66751c2.38624,-0.1203 5.41478,0.1992 7.70751,-0.01215c0.63578,-0.05861 1.19087,-0.64789 1.82567,-0.57947c0.61413,0.0662 1.04816,0.65552 1.59226,0.94791c2.38091,1.27942 5.35299,2.88385 7.93468,3.63799c2.75472,0.80468 5.73495,0.56975 8.58261,0.94418c0.01479,0.02779 0.03021,0.05575 0.0463,0.0839c1.0843,1.89752 2.98181,0.81322 2.98181,0.81322c5.83952,-3.39386 10.30953,-9.47131 12.88203,-15.63095c0.26458,-0.6335 0.8379,-1.98208 1.17113,-3.36295c0.54739,-0.00043 1.09806,0.00938 1.65318,0.03328zM211.14104,182.29156c0.16761,-0.5921 0.31894,-1.1883 0.45994,-1.78713c-0.01163,-0.54593 -0.0463,-1.11076 -0.09174,-1.70148c-0.06938,-0.90187 -0.06983,-1.81298 -0.14,-2.71473c-0.02942,-0.12267 -0.05158,-0.25482 -0.06531,-0.39718c-0.01219,-0.12639 -0.01635,-0.24614 -0.01333,-0.35961c-0.02497,-0.18583 -0.05462,-0.37104 -0.09019,-0.55544c-0.49829,-2.58292 -2.65657,-4.33293 -4.14066,-6.32438c-0.01562,-0.02096 -0.03128,-0.04188 -0.04697,-0.06277c-1.9521,3.11548 -4.04268,6.21607 -5.33291,9.60298c-0.3077,0.80771 -0.14264,1.75857 -0.50476,2.5434c-0.05815,0.12602 -0.13226,0.26517 -0.21949,0.41505c1.75475,1.93329 3.54319,3.83292 5.38923,5.67362c0.64467,0.64281 1.27232,1.29316 1.88819,1.9491c0.43334,-0.60167 0.86958,-1.20084 1.3478,-1.76316c0.26714,-1.51533 1.15045,-3.07083 1.5602,-4.51827zM187.37662,172.05627c-1.4874,-1.70586 -2.97247,-3.27977 -4.36763,-4.88224c-0.60006,1.6269 -0.6207,3.61818 -0.51345,5.26341c0.05745,0.88134 -0.03681,1.82155 0.24011,2.65157l1.61514,1.15052c0.37325,0.25889 0.66198,0.63108 0.8164,1.06681c2.15361,2.71986 2.67165,7.85279 2.88676,11.42622c0.44188,0.21763 0.71818,0.51285 0.71818,0.51285l1.17433,1.26597c0.11301,0.14617 0.22965,0.2954 0.34992,0.44646c0.44848,-0.55741 0.93712,-1.20854 1.50436,-2.21667c0.18348,-0.3261 1.53901,-4.35896 1.63642,-4.54274c0.49056,-0.92548 1.1628,-1.74381 1.82758,-2.56517c-0.02757,-0.17985 -0.05562,-0.35964 -0.08418,-0.53938c-2.6262,-2.99887 -5.19707,-6.04788 -7.80393,-9.03761zM196.94041,169.98901c0.29569,1.63525 0.87923,3.2038 1.36939,4.79457c1.55637,-3.34371 3.68552,-6.44269 5.58368,-9.61277c-2.13327,-1.67213 -4.67291,-2.74691 -7.59978,-2.95464c0.53969,3.07497 0.06728,4.56841 0.64671,7.77284zM190.68266,169.19703c0.71848,0.824 1.43452,1.65092 2.1499,2.47891c-0.07371,-0.3063 -0.1399,-0.61433 -0.1961,-0.92467c-0.48787,-2.69436 -0.17818,-5.49876 -0.71911,-8.18296c-0.01685,-0.08365 -0.03492,-0.16738 -0.05412,-0.25119c-2.05414,0.20457 -4.23148,0.66804 -5.94893,1.62337c1.51678,1.75068 3.17135,3.42497 4.76836,5.25654zM204.96384,191.42023c-1.58873,-1.49846 -3.12777,-3.05158 -4.63233,-4.64114c0.28569,2.53178 0.53737,5.06641 0.83133,7.59513c1.59429,-0.60442 3.10087,-1.49503 4.27244,-2.50051c-0.155,-0.15199 -0.31208,-0.30317 -0.47144,-0.45348zM195.66589,190.78216c-0.23659,0.42838 -1.33554,1.89899 -2.26191,3.25138c0.80803,0.55453 1.69331,0.95997 2.65314,1.08932c0.26444,0.03564 0.53436,0.05669 0.80842,0.06409c-0.22278,-1.92429 -0.42097,-3.85153 -0.62848,-5.77819c-0.15283,0.4748 -0.3308,0.93819 -0.57118,1.3734z"/><path d="M335.51322,163.44867c-0.00003,-0.00004 -0.00005,-0.00009 -0.00008,-0.00013c0.00856,0.00525 0.01712,0.01051 0.02568,0.01577c-0.01256,-0.00325 -0.02122,-0.00841 -0.0256,-0.01564z"/><path d="M315.32989,197.16777c-0.88958,1.00078 -1.80251,1.98119 -2.73189,2.94713c1.06507,-1.26964 2.14892,-2.52191 3.2811,-3.72782c0.3766,-0.40113 0.77726,-0.76857 1.19202,-1.11553c-0.55514,0.65107 -1.13049,1.28714 -1.74123,1.89622z"/><path d="M226.21066,144.444c-0.10853,0.16752 -0.21801,0.33539 -0.32841,0.50348c0.30723,-1.00113 0.61803,-2.00117 0.93159,-3.00034c0.26099,0.00064 0.52126,-0.00113 0.78092,-0.00489c-0.64874,1.16673 -1.27124,2.32756 -1.38409,2.50175z"/><path d="M224.15767,206.13399c-0.00968,0.00843 -0.01927,0.01696 -0.02875,0.0256c-0.00265,-0.01822 -0.00528,-0.03643 -0.0079,-0.05464c0.01222,0.00967 0.02444,0.01935 0.03665,0.02904z"/><path d="M212.44249,154.57979c0.1938,0.13106 0.35283,0.26884 0.4823,0.41039c-0.59378,-0.09017 -1.17727,-0.21153 -1.74521,-0.38005c-0.26183,-0.07769 -0.5241,-0.1691 -0.78679,-0.27186c0.5212,-0.24408 1.22458,-0.31648 2.04971,0.24151z"/><path d="M183.07292,216.12724c0.12909,0.06199 0.25818,0.12397 0.38727,0.18596c-0.23275,-0.06989 -0.45973,-0.15441 -0.67627,-0.26558c0,0 -0.55355,-0.27678 -1.03578,0.00285c-0.11623,-0.02443 -0.22942,-0.04617 -0.33897,-0.06506c0.83866,-0.25437 1.66374,0.14182 1.66374,0.14182z"/></g></g></svg>