<svg version="1.1" xmlns="http://www.w3.org/2000/svg" xmlns:xlink="http://www.w3.org/1999/xlink" width="90.26691" height="26.26488" viewBox="0,0,90.26691,26.26488"><g transform="translate(-194.86655,-166.86756)"><g data-paper-data="{&quot;isPaintingLayer&quot;:true}" fill="#f0ff00" fill-rule="nonzero" stroke="none" stroke-width="0.5" stroke-linecap="butt" stroke-linejoin="miter" stroke-miterlimit="10" stroke-dasharray="" stroke-dashoffset="0" style="mix-blend-mode: normal"><path d="M216.92025,166.89298c1.85149,0.22504 2.15379,1.66349 2.18793,2.37957l0.07102,0.01107l0.11184,-0.02796h0.37719l0.17411,0.04353l0.17851,-0.01853l0.45103,0.06426l0.00129,-0.00072l0.00566,0.00171l0.29639,0.04223l0.45792,0.18636l0.47314,0.14338l0.2569,0.15372l0.00547,0.00223l0.00055,0.00137l0.27591,0.16509l0.49978,0.49858c2.22269,-0.23854 5.66512,0.08898 6.42837,-0.00473c9.40108,-1.15421 18.77991,-1.13937 28.11263,0.58729c0.62486,0.1156 1.65528,0.22567 2.77168,0.41511c0.83433,-0.13292 1.58007,0.21238 1.58007,0.21238c0.15008,0.06969 0.33968,0.15974 0.5568,0.26273c0.80699,0.23787 1.55138,0.54765 2.10614,0.96309c0.72337,0.30908 1.41515,0.57094 1.8643,0.65498c4.56133,0.85343 9.62331,-0.43093 14.09968,0.6466c1.61389,0.38849 4.20957,0.129 4.67233,1.72318c1.20187,4.1404 -3.40848,6.04478 -5.66654,7.62735c-2.98147,2.08958 -5.69547,5.63653 -9.06867,6.99275c-3.89672,1.56671 -9.08457,1.11114 -13.22598,1.71131c-7.09727,0.01609 -13.94067,0.32893 -20.9667,-0.52346c-5.49402,-0.66653 -11.07,-0.01874 -16.56217,-0.97201c-1.1118,-0.19298 -2.20728,-0.46725 -3.30006,-0.75698c-0.20989,0.37865 -0.46335,0.72332 -0.79304,1.00855c-2.15596,1.86522 -7.01063,0.86517 -9.64014,1.29094c-1.23003,0.19917 -2.47431,1.00503 -3.67636,0.67684c-5.03505,-1.37468 -6.35448,-8.1912 -6.86705,-12.45812c-0.47396,-3.94549 -0.97496,-8.53637 3.37093,-10.75871c1.30086,-0.66521 5.20784,0.02269 6.64567,0.04623c3.00248,0.04917 5.96001,-0.52081 8.94863,-0.79876l0.00148,-0.01234c0,0 0.30163,-2.48174 2.78337,-2.1801z" data-paper-data="{&quot;index&quot;:null}"/></g></g></svg>